<svg xmlns="http://www.w3.org/2000/svg" xmlns:xlink="http://www.w3.org/1999/xlink" version="1.2" width="126.82mm" height="15.89mm" viewBox="9.4843 -0.0240 80.1862 10.0474" preserveAspectRatio="xMinYMin meet">
<g color="rgb(100.0%, 100.0%, 100.0%)">
<path transform="translate(10.2843, 4.7760) scale(0.0040, -0.0040)" d="M378 263c4 0 7 1 11 1c156 0 257 -129 257 -262c0 -76 -34 -154 -108 -210c-22 -17 -46 -29 -72 -37c3 -34 4 -68 4 -102c0 -20 0 -40 -1 -60c-7 -121 -90 -228 -209 -228c-108 0 -196 87 -196 196c0 58 53 104 112 104c54 0 95 -48 95 -104c0 -52 -43 -95 -95 -95
c-10 0 -20 2 -29 6c26 -38 68 -63 116 -63c96 0 156 91 162 190c1 19 2 37 2 56c0 30 -2 60 -4 90c-29 -5 -58 -8 -88 -8c-188 0 -333 173 -333 375c0 177 130 307 246 442c-20 62 -38 125 -46 190c-6 52 -7 104 -7 157c0 115 55 223 148 290c3 2 7 3 11 3s8 -1 11 -4
c71 -83 134 -244 134 -357c0 -143 -85 -255 -178 -364c21 -68 40 -137 57 -206zM462 -202c67 24 111 94 111 162c0 89 -65 178 -170 190c24 -115 46 -230 59 -352zM75 26c0 -134 129 -245 263 -245c28 0 55 2 81 6c-14 126 -36 244 -61 363c-79 -8 -124 -61 -124 -119
c0 -43 25 -89 80 -121c5 -5 7 -11 7 -16c0 -12 -10 -23 -22 -23c-3 0 -6 1 -9 2c-81 43 -118 116 -118 186c0 89 58 175 161 198c-14 58 -29 116 -46 173c-106 -122 -212 -244 -212 -404zM406 1042c-99 -47 -162 -148 -162 -257c0 -73 20 -132 38 -191
c79 97 144 199 144 324c0 53 -4 76 -20 124z" fill="currentColor"/>
</g>
<rect transform="translate(0.0000, 0.7760)" x="83.1701" y="-0.1037" width="2.9472" height="0.2073" ry="0.1037" fill="currentColor"/>
<line transform="translate(9.4843, 5.7760)" stroke-linejoin="round" stroke-linecap="round" stroke-width="0.1073" stroke="currentColor" x1="0.0537" y1="-0.0000" x2="80.1862" y2="-0.0000"/>
<line transform="translate(9.4843, 4.7760)" stroke-linejoin="round" stroke-linecap="round" stroke-width="0.1073" stroke="currentColor" x1="0.0537" y1="-0.0000" x2="80.1862" y2="-0.0000"/>
<line transform="translate(9.4843, 3.7760)" stroke-linejoin="round" stroke-linecap="round" stroke-width="0.1073" stroke="currentColor" x1="0.0537" y1="-0.0000" x2="80.1862" y2="-0.0000"/>
<line transform="translate(9.4843, 2.7760)" stroke-linejoin="round" stroke-linecap="round" stroke-width="0.1073" stroke="currentColor" x1="0.0537" y1="-0.0000" x2="80.1862" y2="-0.0000"/>
<line transform="translate(9.4843, 1.7760)" stroke-linejoin="round" stroke-linecap="round" stroke-width="0.1073" stroke="currentColor" x1="0.0537" y1="-0.0000" x2="80.1862" y2="-0.0000"/>
<path transform="translate(41.2214, 6.2760) scale(0.0040, -0.0040)" d="M214 111c-49 0 -68 -43 -68 -88c0 -75 57 -134 132 -134c49 0 67 43 67 88c0 75 -56 134 -131 134zM491 0c0 -43 -34 -76 -72 -98c-53 -30 -113 -41 -173 -41s-121 11 -174 41c-38 22 -72 55 -72 98s34 76 72 98c53 30 114 41 174 41s120 -11 173 -41
c38 -22 72 -55 72 -98z" fill="currentColor"/>
<text transform="translate(35.1586, 9.9854)" font-family="Century Schoolbook L" font-size="2.2000" text-anchor="start" fill="currentColor">
<tspan>
4</tspan>
</text>
<path transform="translate(35.1586, 6.2760) scale(0.0040, -0.0040)" d="M214 111c-49 0 -68 -43 -68 -88c0 -75 57 -134 132 -134c49 0 67 43 67 88c0 75 -56 134 -131 134zM491 0c0 -43 -34 -76 -72 -98c-53 -30 -113 -41 -173 -41s-121 11 -174 41c-38 22 -72 55 -72 98s34 76 72 98c53 30 114 41 174 41s120 -11 173 -41
c38 -22 72 -55 72 -98z" fill="currentColor"/>
<text transform="translate(29.0957, 9.9854)" font-family="Century Schoolbook L" font-size="2.2000" text-anchor="start" fill="currentColor">
<tspan>
3</tspan>
</text>
<path transform="translate(29.0957, 5.2760) scale(0.0040, -0.0040)" d="M214 111c-49 0 -68 -43 -68 -88c0 -75 57 -134 132 -134c49 0 67 43 67 88c0 75 -56 134 -131 134zM491 0c0 -43 -34 -76 -72 -98c-53 -30 -113 -41 -173 -41s-121 11 -174 41c-38 22 -72 55 -72 98s34 76 72 98c53 30 114 41 174 41s120 -11 173 -41
c38 -22 72 -55 72 -98z" fill="currentColor"/>
<path transform="translate(29.0957, 6.2760) scale(0.0040, -0.0040)" d="M214 111c-49 0 -68 -43 -68 -88c0 -75 57 -134 132 -134c49 0 67 43 67 88c0 75 -56 134 -131 134zM491 0c0 -43 -34 -76 -72 -98c-53 -30 -113 -41 -173 -41s-121 11 -174 41c-38 22 -72 55 -72 98s34 76 72 98c53 30 114 41 174 41s120 -11 173 -41
c38 -22 72 -55 72 -98z" fill="currentColor"/>
<text transform="translate(23.0329, 9.9854)" font-family="Century Schoolbook L" font-size="2.2000" text-anchor="start" fill="currentColor">
<tspan>
2</tspan>
</text>
<path transform="translate(24.7187, 5.7760) scale(0.0040, -0.0040)" d="M214 111c-49 0 -68 -43 -68 -88c0 -75 57 -134 132 -134c49 0 67 43 67 88c0 75 -56 134 -131 134zM491 0c0 -43 -34 -76 -72 -98c-53 -30 -113 -41 -173 -41s-121 11 -174 41c-38 22 -72 55 -72 98s34 76 72 98c53 30 114 41 174 41s120 -11 173 -41
c38 -22 72 -55 72 -98z" fill="currentColor"/>
<path transform="translate(23.0329, 6.2760) scale(0.0040, -0.0040)" d="M214 111c-49 0 -68 -43 -68 -88c0 -75 57 -134 132 -134c49 0 67 43 67 88c0 75 -56 134 -131 134zM491 0c0 -43 -34 -76 -72 -98c-53 -30 -113 -41 -173 -41s-121 11 -174 41c-38 22 -72 55 -72 98s34 76 72 98c53 30 114 41 174 41s120 -11 173 -41
c38 -22 72 -55 72 -98z" fill="currentColor"/>
<text transform="translate(59.4099, 9.9854)" font-family="Century Schoolbook L" font-size="2.2000" text-anchor="start" fill="currentColor">
<tspan>
8</tspan>
</text>
<path transform="translate(59.4099, 2.7760) scale(0.0040, -0.0040)" d="M214 111c-49 0 -68 -43 -68 -88c0 -75 57 -134 132 -134c49 0 67 43 67 88c0 75 -56 134 -131 134zM491 0c0 -43 -34 -76 -72 -98c-53 -30 -113 -41 -173 -41s-121 11 -174 41c-38 22 -72 55 -72 98s34 76 72 98c53 30 114 41 174 41s120 -11 173 -41
c38 -22 72 -55 72 -98z" fill="currentColor"/>
<path transform="translate(59.4099, 6.2760) scale(0.0040, -0.0040)" d="M214 111c-49 0 -68 -43 -68 -88c0 -75 57 -134 132 -134c49 0 67 43 67 88c0 75 -56 134 -131 134zM491 0c0 -43 -34 -76 -72 -98c-53 -30 -113 -41 -173 -41s-121 11 -174 41c-38 22 -72 55 -72 98s34 76 72 98c53 30 114 41 174 41s120 -11 173 -41
c38 -22 72 -55 72 -98z" fill="currentColor"/>
<text transform="translate(53.3471, 9.9854)" font-family="Century Schoolbook L" font-size="2.2000" text-anchor="start" fill="currentColor">
<tspan>
7</tspan>
</text>
<path transform="translate(53.3471, 3.2760) scale(0.0040, -0.0040)" d="M214 111c-49 0 -68 -43 -68 -88c0 -75 57 -134 132 -134c49 0 67 43 67 88c0 75 -56 134 -131 134zM491 0c0 -43 -34 -76 -72 -98c-53 -30 -113 -41 -173 -41s-121 11 -174 41c-38 22 -72 55 -72 98s34 76 72 98c53 30 114 41 174 41s120 -11 173 -41
c38 -22 72 -55 72 -98z" fill="currentColor"/>
<path transform="translate(53.3471, 6.2760) scale(0.0040, -0.0040)" d="M214 111c-49 0 -68 -43 -68 -88c0 -75 57 -134 132 -134c49 0 67 43 67 88c0 75 -56 134 -131 134zM491 0c0 -43 -34 -76 -72 -98c-53 -30 -113 -41 -173 -41s-121 11 -174 41c-38 22 -72 55 -72 98s34 76 72 98c53 30 114 41 174 41s120 -11 173 -41
c38 -22 72 -55 72 -98z" fill="currentColor"/>
<text transform="translate(47.2843, 9.9854)" font-family="Century Schoolbook L" font-size="2.2000" text-anchor="start" fill="currentColor">
<tspan>
6</tspan>
</text>
<path transform="translate(47.2843, 3.7760) scale(0.0040, -0.0040)" d="M214 111c-49 0 -68 -43 -68 -88c0 -75 57 -134 132 -134c49 0 67 43 67 88c0 75 -56 134 -131 134zM491 0c0 -43 -34 -76 -72 -98c-53 -30 -113 -41 -173 -41s-121 11 -174 41c-38 22 -72 55 -72 98s34 76 72 98c53 30 114 41 174 41s120 -11 173 -41
c38 -22 72 -55 72 -98z" fill="currentColor"/>
<path transform="translate(47.2843, 6.2760) scale(0.0040, -0.0040)" d="M214 111c-49 0 -68 -43 -68 -88c0 -75 57 -134 132 -134c49 0 67 43 67 88c0 75 -56 134 -131 134zM491 0c0 -43 -34 -76 -72 -98c-53 -30 -113 -41 -173 -41s-121 11 -174 41c-38 22 -72 55 -72 98s34 76 72 98c53 30 114 41 174 41s120 -11 173 -41
c38 -22 72 -55 72 -98z" fill="currentColor"/>
<text transform="translate(41.2214, 9.9854)" font-family="Century Schoolbook L" font-size="2.2000" text-anchor="start" fill="currentColor">
<tspan>
5</tspan>
</text>
<path transform="translate(41.2214, 4.2760) scale(0.0040, -0.0040)" d="M214 111c-49 0 -68 -43 -68 -88c0 -75 57 -134 132 -134c49 0 67 43 67 88c0 75 -56 134 -131 134zM491 0c0 -43 -34 -76 -72 -98c-53 -30 -113 -41 -173 -41s-121 11 -174 41c-38 22 -72 55 -72 98s34 76 72 98c53 30 114 41 174 41s120 -11 173 -41
c38 -22 72 -55 72 -98z" fill="currentColor"/>
<text transform="translate(65.4728, 9.9854)" font-family="Century Schoolbook L" font-size="2.2000" text-anchor="start" fill="currentColor">
<tspan>
9</tspan>
</text>
<path transform="translate(65.4728, 2.2760) scale(0.0040, -0.0040)" d="M214 111c-49 0 -68 -43 -68 -88c0 -75 57 -134 132 -134c49 0 67 43 67 88c0 75 -56 134 -131 134zM491 0c0 -43 -34 -76 -72 -98c-53 -30 -113 -41 -173 -41s-121 11 -174 41c-38 22 -72 55 -72 98s34 76 72 98c53 30 114 41 174 41s120 -11 173 -41
c38 -22 72 -55 72 -98z" fill="currentColor"/>
<path transform="translate(65.4728, 6.2760) scale(0.0040, -0.0040)" d="M214 111c-49 0 -68 -43 -68 -88c0 -75 57 -134 132 -134c49 0 67 43 67 88c0 75 -56 134 -131 134zM491 0c0 -43 -34 -76 -72 -98c-53 -30 -113 -41 -173 -41s-121 11 -174 41c-38 22 -72 55 -72 98s34 76 72 98c53 30 114 41 174 41s120 -11 173 -41
c38 -22 72 -55 72 -98z" fill="currentColor"/>
<text transform="translate(15.2843, 9.9854)" font-family="Century Schoolbook L" font-size="2.2000" text-anchor="start" fill="currentColor">
<tspan>
1</tspan>
</text>
<path transform="translate(16.9701, 6.2760) scale(0.0040, -0.0040)" d="M214 111c-49 0 -68 -43 -68 -88c0 -75 57 -134 132 -134c49 0 67 43 67 88c0 75 -56 134 -131 134zM491 0c0 -43 -34 -76 -72 -98c-53 -30 -113 -41 -173 -41s-121 11 -174 41c-38 22 -72 55 -72 98s34 76 72 98c53 30 114 41 174 41s120 -11 173 -41
c38 -22 72 -55 72 -98z" fill="currentColor"/>
<path transform="translate(15.2843, 6.2760) scale(0.0040, -0.0040)" d="M214 111c-49 0 -68 -43 -68 -88c0 -75 57 -134 132 -134c49 0 67 43 67 88c0 75 -56 134 -131 134zM491 0c0 -43 -34 -76 -72 -98c-53 -30 -113 -41 -173 -41s-121 11 -174 41c-38 22 -72 55 -72 98s34 76 72 98c53 30 114 41 174 41s120 -11 173 -41
c38 -22 72 -55 72 -98z" fill="currentColor"/>
<path transform="translate(35.1586, 4.7760) scale(0.0040, -0.0040)" d="M214 111c-49 0 -68 -43 -68 -88c0 -75 57 -134 132 -134c49 0 67 43 67 88c0 75 -56 134 -131 134zM491 0c0 -43 -34 -76 -72 -98c-53 -30 -113 -41 -173 -41s-121 11 -174 41c-38 22 -72 55 -72 98s34 76 72 98c53 30 114 41 174 41s120 -11 173 -41
c38 -22 72 -55 72 -98z" fill="currentColor"/>
<text transform="translate(83.6613, 9.9854)" font-family="Century Schoolbook L" font-size="2.2000" text-anchor="start" fill="currentColor">
<tspan>
12</tspan>
</text>
<path transform="translate(83.6613, 0.7760) scale(0.0040, -0.0040)" d="M214 111c-49 0 -68 -43 -68 -88c0 -75 57 -134 132 -134c49 0 67 43 67 88c0 75 -56 134 -131 134zM491 0c0 -43 -34 -76 -72 -98c-53 -30 -113 -41 -173 -41s-121 11 -174 41c-38 22 -72 55 -72 98s34 76 72 98c53 30 114 41 174 41s120 -11 173 -41
c38 -22 72 -55 72 -98z" fill="currentColor"/>
<path transform="translate(83.6613, 6.2760) scale(0.0040, -0.0040)" d="M214 111c-49 0 -68 -43 -68 -88c0 -75 57 -134 132 -134c49 0 67 43 67 88c0 75 -56 134 -131 134zM491 0c0 -43 -34 -76 -72 -98c-53 -30 -113 -41 -173 -41s-121 11 -174 41c-38 22 -72 55 -72 98s34 76 72 98c53 30 114 41 174 41s120 -11 173 -41
c38 -22 72 -55 72 -98z" fill="currentColor"/>
<text transform="translate(77.5985, 9.9854)" font-family="Century Schoolbook L" font-size="2.2000" text-anchor="start" fill="currentColor">
<tspan>
11</tspan>
</text>
<path transform="translate(77.5985, 1.2760) scale(0.0040, -0.0040)" d="M214 111c-49 0 -68 -43 -68 -88c0 -75 57 -134 132 -134c49 0 67 43 67 88c0 75 -56 134 -131 134zM491 0c0 -43 -34 -76 -72 -98c-53 -30 -113 -41 -173 -41s-121 11 -174 41c-38 22 -72 55 -72 98s34 76 72 98c53 30 114 41 174 41s120 -11 173 -41
c38 -22 72 -55 72 -98z" fill="currentColor"/>
<path transform="translate(77.5985, 6.2760) scale(0.0040, -0.0040)" d="M214 111c-49 0 -68 -43 -68 -88c0 -75 57 -134 132 -134c49 0 67 43 67 88c0 75 -56 134 -131 134zM491 0c0 -43 -34 -76 -72 -98c-53 -30 -113 -41 -173 -41s-121 11 -174 41c-38 22 -72 55 -72 98s34 76 72 98c53 30 114 41 174 41s120 -11 173 -41
c38 -22 72 -55 72 -98z" fill="currentColor"/>
<path transform="translate(71.5356, 6.2760) scale(0.0040, -0.0040)" d="M214 111c-49 0 -68 -43 -68 -88c0 -75 57 -134 132 -134c49 0 67 43 67 88c0 75 -56 134 -131 134zM491 0c0 -43 -34 -76 -72 -98c-53 -30 -113 -41 -173 -41s-121 11 -174 41c-38 22 -72 55 -72 98s34 76 72 98c53 30 114 41 174 41s120 -11 173 -41
c38 -22 72 -55 72 -98z" fill="currentColor"/>
<path transform="translate(71.5356, 1.7760) scale(0.0040, -0.0040)" d="M214 111c-49 0 -68 -43 -68 -88c0 -75 57 -134 132 -134c49 0 67 43 67 88c0 75 -56 134 -131 134zM491 0c0 -43 -34 -76 -72 -98c-53 -30 -113 -41 -173 -41s-121 11 -174 41c-38 22 -72 55 -72 98s34 76 72 98c53 30 114 41 174 41s120 -11 173 -41
c38 -22 72 -55 72 -98z" fill="currentColor"/>
<text transform="translate(71.5356, 9.9854)" font-family="Century Schoolbook L" font-size="2.2000" text-anchor="start" fill="currentColor">
<tspan>
10</tspan>
</text>
</svg>
