<svg xmlns="http://www.w3.org/2000/svg" xmlns:xlink="http://www.w3.org/1999/xlink" version="1.2" width="103.30mm" height="23.56mm" viewBox="8.1626 -0.0240 65.3133 14.8987" preserveAspectRatio="xMinYMin meet">
<rect transform="translate(0.0000, 6.7760)" x="14.7931" y="-0.1037" width="2.9472" height="0.2073" ry="0.1037" fill="currentColor"/>
<line transform="translate(9.4843, 5.7760)" stroke-linejoin="round" stroke-linecap="round" stroke-width="0.1073" stroke="currentColor" x1="0.0537" y1="-0.0000" x2="63.9916" y2="-0.0000"/>
<line transform="translate(9.4843, 4.7760)" stroke-linejoin="round" stroke-linecap="round" stroke-width="0.1073" stroke="currentColor" x1="0.0537" y1="-0.0000" x2="63.9916" y2="-0.0000"/>
<line transform="translate(9.4843, 3.7760)" stroke-linejoin="round" stroke-linecap="round" stroke-width="0.1073" stroke="currentColor" x1="0.0537" y1="-0.0000" x2="63.9916" y2="-0.0000"/>
<line transform="translate(9.4843, 2.7760)" stroke-linejoin="round" stroke-linecap="round" stroke-width="0.1073" stroke="currentColor" x1="0.0537" y1="-0.0000" x2="63.9916" y2="-0.0000"/>
<line transform="translate(9.4843, 1.7760)" stroke-linejoin="round" stroke-linecap="round" stroke-width="0.1073" stroke="currentColor" x1="0.0537" y1="-0.0000" x2="63.9916" y2="-0.0000"/>
<rect transform="translate(0.0000, 9.7760)" x="14.7931" y="-0.1037" width="2.9472" height="0.2073" ry="0.1037" fill="currentColor"/>
<rect transform="translate(0.0000, 9.7760)" x="32.1872" y="-0.1037" width="2.9472" height="0.2073" ry="0.1037" fill="currentColor"/>
<line transform="translate(9.4843, 14.7760)" stroke-linejoin="round" stroke-linecap="round" stroke-width="0.1073" stroke="currentColor" x1="0.0537" y1="-0.0000" x2="63.9916" y2="-0.0000"/>
<line transform="translate(9.4843, 13.7760)" stroke-linejoin="round" stroke-linecap="round" stroke-width="0.1073" stroke="currentColor" x1="0.0537" y1="-0.0000" x2="63.9916" y2="-0.0000"/>
<line transform="translate(9.4843, 12.7760)" stroke-linejoin="round" stroke-linecap="round" stroke-width="0.1073" stroke="currentColor" x1="0.0537" y1="-0.0000" x2="63.9916" y2="-0.0000"/>
<line transform="translate(9.4843, 11.7760)" stroke-linejoin="round" stroke-linecap="round" stroke-width="0.1073" stroke="currentColor" x1="0.0537" y1="-0.0000" x2="63.9916" y2="-0.0000"/>
<line transform="translate(9.4843, 10.7760)" stroke-linejoin="round" stroke-linecap="round" stroke-width="0.1073" stroke="currentColor" x1="0.0537" y1="-0.0000" x2="63.9916" y2="-0.0000"/>
<path transform="translate(67.4667, 5.7760) scale(0.0040, -0.0040)" d="M214 111c-49 0 -68 -43 -68 -88c0 -75 57 -134 132 -134c49 0 67 43 67 88c0 75 -56 134 -131 134zM491 0c0 -43 -34 -76 -72 -98c-53 -30 -113 -41 -173 -41s-121 11 -174 41c-38 22 -72 55 -72 98s34 76 72 98c53 30 114 41 174 41s120 -11 173 -41
c38 -22 72 -55 72 -98z" fill="currentColor"/>
<path transform="translate(44.2745, 3.7760) scale(0.0040, -0.0040)" d="M214 111c-49 0 -68 -43 -68 -88c0 -75 57 -134 132 -134c49 0 67 43 67 88c0 75 -56 134 -131 134zM491 0c0 -43 -34 -76 -72 -98c-53 -30 -113 -41 -173 -41s-121 11 -174 41c-38 22 -72 55 -72 98s34 76 72 98c53 30 114 41 174 41s120 -11 173 -41
c38 -22 72 -55 72 -98z" fill="currentColor"/>
<path transform="translate(44.2745, 11.2760) scale(0.0040, -0.0040)" d="M214 111c-49 0 -68 -43 -68 -88c0 -75 57 -134 132 -134c49 0 67 43 67 88c0 75 -56 134 -131 134zM491 0c0 -43 -34 -76 -72 -98c-53 -30 -113 -41 -173 -41s-121 11 -174 41c-38 22 -72 55 -72 98s34 76 72 98c53 30 114 41 174 41s120 -11 173 -41
c38 -22 72 -55 72 -98z" fill="currentColor"/>
<path transform="translate(38.4764, 10.7760) scale(0.0040, -0.0040)" d="M214 111c-49 0 -68 -43 -68 -88c0 -75 57 -134 132 -134c49 0 67 43 67 88c0 75 -56 134 -131 134zM491 0c0 -43 -34 -76 -72 -98c-53 -30 -113 -41 -173 -41s-121 11 -174 41c-38 22 -72 55 -72 98s34 76 72 98c53 30 114 41 174 41s120 -11 173 -41
c38 -22 72 -55 72 -98z" fill="currentColor"/>
<path transform="translate(38.4764, 4.2760) scale(0.0040, -0.0040)" d="M214 111c-49 0 -68 -43 -68 -88c0 -75 57 -134 132 -134c49 0 67 43 67 88c0 75 -56 134 -131 134zM491 0c0 -43 -34 -76 -72 -98c-53 -30 -113 -41 -173 -41s-121 11 -174 41c-38 22 -72 55 -72 98s34 76 72 98c53 30 114 41 174 41s120 -11 173 -41
c38 -22 72 -55 72 -98z" fill="currentColor"/>
<path transform="translate(67.4667, 12.2760) scale(0.0040, -0.0040)" d="M214 111c-49 0 -68 -43 -68 -88c0 -75 57 -134 132 -134c49 0 67 43 67 88c0 75 -56 134 -131 134zM491 0c0 -43 -34 -76 -72 -98c-53 -30 -113 -41 -173 -41s-121 11 -174 41c-38 22 -72 55 -72 98s34 76 72 98c53 30 114 41 174 41s120 -11 173 -41
c38 -22 72 -55 72 -98z" fill="currentColor"/>
<path transform="translate(61.6686, 11.2760) scale(0.0040, -0.0040)" d="M214 111c-49 0 -68 -43 -68 -88c0 -75 57 -134 132 -134c49 0 67 43 67 88c0 75 -56 134 -131 134zM491 0c0 -43 -34 -76 -72 -98c-53 -30 -113 -41 -173 -41s-121 11 -174 41c-38 22 -72 55 -72 98s34 76 72 98c53 30 114 41 174 41s120 -11 173 -41
c38 -22 72 -55 72 -98z" fill="currentColor"/>
<path transform="translate(61.6686, 5.2760) scale(0.0040, -0.0040)" d="M214 111c-49 0 -68 -43 -68 -88c0 -75 57 -134 132 -134c49 0 67 43 67 88c0 75 -56 134 -131 134zM491 0c0 -43 -34 -76 -72 -98c-53 -30 -113 -41 -173 -41s-121 11 -174 41c-38 22 -72 55 -72 98s34 76 72 98c53 30 114 41 174 41s120 -11 173 -41
c38 -22 72 -55 72 -98z" fill="currentColor"/>
<path transform="translate(55.8706, 10.7760) scale(0.0040, -0.0040)" d="M214 111c-49 0 -68 -43 -68 -88c0 -75 57 -134 132 -134c49 0 67 43 67 88c0 75 -56 134 -131 134zM491 0c0 -43 -34 -76 -72 -98c-53 -30 -113 -41 -173 -41s-121 11 -174 41c-38 22 -72 55 -72 98s34 76 72 98c53 30 114 41 174 41s120 -11 173 -41
c38 -22 72 -55 72 -98z" fill="currentColor"/>
<path transform="translate(55.8706, 4.2760) scale(0.0040, -0.0040)" d="M214 111c-49 0 -68 -43 -68 -88c0 -75 57 -134 132 -134c49 0 67 43 67 88c0 75 -56 134 -131 134zM491 0c0 -43 -34 -76 -72 -98c-53 -30 -113 -41 -173 -41s-121 11 -174 41c-38 22 -72 55 -72 98s34 76 72 98c53 30 114 41 174 41s120 -11 173 -41
c38 -22 72 -55 72 -98z" fill="currentColor"/>
<path transform="translate(50.0725, 11.7760) scale(0.0040, -0.0040)" d="M214 111c-49 0 -68 -43 -68 -88c0 -75 57 -134 132 -134c49 0 67 43 67 88c0 75 -56 134 -131 134zM491 0c0 -43 -34 -76 -72 -98c-53 -30 -113 -41 -173 -41s-121 11 -174 41c-38 22 -72 55 -72 98s34 76 72 98c53 30 114 41 174 41s120 -11 173 -41
c38 -22 72 -55 72 -98z" fill="currentColor"/>
<path transform="translate(50.0725, 2.7760) scale(0.0040, -0.0040)" d="M214 111c-49 0 -68 -43 -68 -88c0 -75 57 -134 132 -134c49 0 67 43 67 88c0 75 -56 134 -131 134zM491 0c0 -43 -34 -76 -72 -98c-53 -30 -113 -41 -173 -41s-121 11 -174 41c-38 22 -72 55 -72 98s34 76 72 98c53 30 114 41 174 41s120 -11 173 -41
c38 -22 72 -55 72 -98z" fill="currentColor"/>
<path transform="translate(10.2843, 11.7760) scale(0.0040, -0.0040)" d="M558 -125c0 28 22 51 50 51s51 -23 51 -51s-23 -51 -51 -51s-50 23 -50 51zM558 125c0 28 22 51 50 51s51 -23 51 -51s-23 -51 -51 -51s-50 23 -50 51zM231 264c172 0 294 -88 294 -251c0 -263 -262 -416 -515 -523c-3 -3 -7 -4 -10 -4c-7 0 -14 7 -14 14c0 3 1 7 4 10
c201 118 410 265 410 492c0 119 -61 234 -169 234c-72 0 -124 -53 -148 -123c10 4 19 6 29 6c55 0 100 -45 100 -100c0 -58 -44 -106 -100 -106c-60 0 -112 47 -112 106c0 133 101 245 231 245z" fill="currentColor"/>
<path transform="translate(15.2843, 9.7760) scale(0.0040, -0.0040)" d="M214 111c-49 0 -68 -43 -68 -88c0 -75 57 -134 132 -134c49 0 67 43 67 88c0 75 -56 134 -131 134zM491 0c0 -43 -34 -76 -72 -98c-53 -30 -113 -41 -173 -41s-121 11 -174 41c-38 22 -72 55 -72 98s34 76 72 98c53 30 114 41 174 41s120 -11 173 -41
c38 -22 72 -55 72 -98z" fill="currentColor"/>
<path transform="translate(10.2843, 4.7760) scale(0.0040, -0.0040)" d="M378 263c4 0 7 1 11 1c156 0 257 -129 257 -262c0 -76 -34 -154 -108 -210c-22 -17 -46 -29 -72 -37c3 -34 4 -68 4 -102c0 -20 0 -40 -1 -60c-7 -121 -90 -228 -209 -228c-108 0 -196 87 -196 196c0 58 53 104 112 104c54 0 95 -48 95 -104c0 -52 -43 -95 -95 -95
c-10 0 -20 2 -29 6c26 -38 68 -63 116 -63c96 0 156 91 162 190c1 19 2 37 2 56c0 30 -2 60 -4 90c-29 -5 -58 -8 -88 -8c-188 0 -333 173 -333 375c0 177 130 307 246 442c-20 62 -38 125 -46 190c-6 52 -7 104 -7 157c0 115 55 223 148 290c3 2 7 3 11 3s8 -1 11 -4
c71 -83 134 -244 134 -357c0 -143 -85 -255 -178 -364c21 -68 40 -137 57 -206zM462 -202c67 24 111 94 111 162c0 89 -65 178 -170 190c24 -115 46 -230 59 -352zM75 26c0 -134 129 -245 263 -245c28 0 55 2 81 6c-14 126 -36 244 -61 363c-79 -8 -124 -61 -124 -119
c0 -43 25 -89 80 -121c5 -5 7 -11 7 -16c0 -12 -10 -23 -22 -23c-3 0 -6 1 -9 2c-81 43 -118 116 -118 186c0 89 58 175 161 198c-14 58 -29 116 -46 173c-106 -122 -212 -244 -212 -404zM406 1042c-99 -47 -162 -148 -162 -257c0 -73 20 -132 38 -191
c79 97 144 199 144 324c0 53 -4 76 -20 124z" fill="currentColor"/>
<path transform="translate(15.2843, 6.7760) scale(0.0040, -0.0040)" d="M214 111c-49 0 -68 -43 -68 -88c0 -75 57 -134 132 -134c49 0 67 43 67 88c0 75 -56 134 -131 134zM491 0c0 -43 -34 -76 -72 -98c-53 -30 -113 -41 -173 -41s-121 11 -174 41c-38 22 -72 55 -72 98s34 76 72 98c53 30 114 41 174 41s120 -11 173 -41
c38 -22 72 -55 72 -98z" fill="currentColor"/>
<rect transform="translate(9.4126, 8.2760)" x="0.0000" y="-6.5537" width="0.1717" height="13.1073" ry="0.0537" fill="currentColor"/>
<path transform="translate(8.1626, 1.4974) scale(0.0040, -0.0040)" d="M448 332c10 0 17 -8 17 -17c0 -3 -1 -6 -3 -9c-96 -144 -210 -362 -381 -362h-81v85c0 15 12 27 27 27h54c157 0 265 136 353 268c3 5 9 8 14 8z" fill="currentColor"/>
<path transform="translate(8.1626, 15.0546) scale(0.0040, -0.0040)" d="M465 -315c0 -9 -7 -17 -17 -17c-5 0 -11 3 -14 8c-88 132 -196 268 -353 268h-54c-15 0 -27 12 -27 27v85h81c171 0 285 -218 381 -362c2 -3 3 -6 3 -9z" fill="currentColor"/>
<rect transform="translate(8.1626, 8.2760)" x="0.0000" y="-6.5987" width="0.4500" height="13.1973" ry="0.0000" fill="currentColor"/>
<path transform="translate(32.6784, 9.7760) scale(0.0040, -0.0040)" d="M214 111c-49 0 -68 -43 -68 -88c0 -75 57 -134 132 -134c49 0 67 43 67 88c0 75 -56 134 -131 134zM491 0c0 -43 -34 -76 -72 -98c-53 -30 -113 -41 -173 -41s-121 11 -174 41c-38 22 -72 55 -72 98s34 76 72 98c53 30 114 41 174 41s120 -11 173 -41
c38 -22 72 -55 72 -98z" fill="currentColor"/>
<path transform="translate(32.6784, 5.2760) scale(0.0040, -0.0040)" d="M214 111c-49 0 -68 -43 -68 -88c0 -75 57 -134 132 -134c49 0 67 43 67 88c0 75 -56 134 -131 134zM491 0c0 -43 -34 -76 -72 -98c-53 -30 -113 -41 -173 -41s-121 11 -174 41c-38 22 -72 55 -72 98s34 76 72 98c53 30 114 41 174 41s120 -11 173 -41
c38 -22 72 -55 72 -98z" fill="currentColor"/>
<path transform="translate(26.8803, 10.7760) scale(0.0040, -0.0040)" d="M214 111c-49 0 -68 -43 -68 -88c0 -75 57 -134 132 -134c49 0 67 43 67 88c0 75 -56 134 -131 134zM491 0c0 -43 -34 -76 -72 -98c-53 -30 -113 -41 -173 -41s-121 11 -174 41c-38 22 -72 55 -72 98s34 76 72 98c53 30 114 41 174 41s120 -11 173 -41
c38 -22 72 -55 72 -98z" fill="currentColor"/>
<path transform="translate(21.0823, 6.2760) scale(0.0040, -0.0040)" d="M214 111c-49 0 -68 -43 -68 -88c0 -75 57 -134 132 -134c49 0 67 43 67 88c0 75 -56 134 -131 134zM491 0c0 -43 -34 -76 -72 -98c-53 -30 -113 -41 -173 -41s-121 11 -174 41c-38 22 -72 55 -72 98s34 76 72 98c53 30 114 41 174 41s120 -11 173 -41
c38 -22 72 -55 72 -98z" fill="currentColor"/>
<path transform="translate(21.0823, 10.2760) scale(0.0040, -0.0040)" d="M214 111c-49 0 -68 -43 -68 -88c0 -75 57 -134 132 -134c49 0 67 43 67 88c0 75 -56 134 -131 134zM491 0c0 -43 -34 -76 -72 -98c-53 -30 -113 -41 -173 -41s-121 11 -174 41c-38 22 -72 55 -72 98s34 76 72 98c53 30 114 41 174 41s120 -11 173 -41
c38 -22 72 -55 72 -98z" fill="currentColor"/>
<path transform="translate(26.8803, 4.7760) scale(0.0040, -0.0040)" d="M214 111c-49 0 -68 -43 -68 -88c0 -75 57 -134 132 -134c49 0 67 43 67 88c0 75 -56 134 -131 134zM491 0c0 -43 -34 -76 -72 -98c-53 -30 -113 -41 -173 -41s-121 11 -174 41c-38 22 -72 55 -72 98s34 76 72 98c53 30 114 41 174 41s120 -11 173 -41
c38 -22 72 -55 72 -98z" fill="currentColor"/>
</svg>
