<svg xmlns="http://www.w3.org/2000/svg" xmlns:xlink="http://www.w3.org/1999/xlink" version="1.2" width="134.80mm" height="8.08mm" viewBox="9.4843 -0.0000 85.2303 5.1080">
<line transform="translate(9.4843, 5.0540)" stroke-linejoin="round" stroke-linecap="round" stroke-width="0.1073" stroke="currentColor" x1="0.0537" y1="-0.0000" x2="85.2303" y2="-0.0000"/>
<line transform="translate(9.4843, 4.0540)" stroke-linejoin="round" stroke-linecap="round" stroke-width="0.1073" stroke="currentColor" x1="0.0537" y1="-0.0000" x2="85.2303" y2="-0.0000"/>
<line transform="translate(9.4843, 3.0540)" stroke-linejoin="round" stroke-linecap="round" stroke-width="0.1073" stroke="currentColor" x1="0.0537" y1="-0.0000" x2="85.2303" y2="-0.0000"/>
<line transform="translate(9.4843, 2.0540)" stroke-linejoin="round" stroke-linecap="round" stroke-width="0.1073" stroke="currentColor" x1="0.0537" y1="-0.0000" x2="85.2303" y2="-0.0000"/>
<line transform="translate(9.4843, 1.0540)" stroke-linejoin="round" stroke-linecap="round" stroke-width="0.1073" stroke="currentColor" x1="0.0537" y1="-0.0000" x2="85.2303" y2="-0.0000"/>
<path transform="translate(54.3532, 4.5540) scale(0.0040, -0.0040)" d="M0 0c0 31 25 56 56 56s55 -25 55 -56s-24 -56 -55 -56s-56 25 -56 56z" fill="currentColor"/>
<path transform="translate(54.3532, 3.5540) scale(0.0040, -0.0040)" d="M0 0c0 31 25 56 56 56s55 -25 55 -56s-24 -56 -55 -56s-56 25 -56 56z" fill="currentColor"/>
<path transform="translate(54.3532, 2.5540) scale(0.0040, -0.0040)" d="M0 0c0 31 25 56 56 56s55 -25 55 -56s-24 -56 -55 -56s-56 25 -56 56z" fill="currentColor"/>
<path transform="translate(54.3532, 1.5540) scale(0.0040, -0.0040)" d="M0 0c0 31 25 56 56 56s55 -25 55 -56s-24 -56 -55 -56s-56 25 -56 56z" fill="currentColor"/>
<path transform="translate(40.8816, 4.5540) scale(0.0040, -0.0040)" d="M0 0c0 31 25 56 56 56s55 -25 55 -56s-24 -56 -55 -56s-56 25 -56 56z" fill="currentColor"/>
<path transform="translate(40.8816, 3.5540) scale(0.0040, -0.0040)" d="M0 0c0 31 25 56 56 56s55 -25 55 -56s-24 -56 -55 -56s-56 25 -56 56z" fill="currentColor"/>
<path transform="translate(40.8816, 2.5540) scale(0.0040, -0.0040)" d="M0 0c0 31 25 56 56 56s55 -25 55 -56s-24 -56 -55 -56s-56 25 -56 56z" fill="currentColor"/>
<path transform="translate(40.8816, 1.5540) scale(0.0040, -0.0040)" d="M0 0c0 31 25 56 56 56s55 -25 55 -56s-24 -56 -55 -56s-56 25 -56 56z" fill="currentColor"/>
<path transform="translate(67.8249, 4.5540) scale(0.0040, -0.0040)" d="M0 0c0 31 25 56 56 56s55 -25 55 -56s-24 -56 -55 -56s-56 25 -56 56z" fill="currentColor"/>
<path transform="translate(67.8249, 3.5540) scale(0.0040, -0.0040)" d="M0 0c0 31 25 56 56 56s55 -25 55 -56s-24 -56 -55 -56s-56 25 -56 56z" fill="currentColor"/>
<path transform="translate(67.8249, 2.5540) scale(0.0040, -0.0040)" d="M0 0c0 31 25 56 56 56s55 -25 55 -56s-24 -56 -55 -56s-56 25 -56 56z" fill="currentColor"/>
<path transform="translate(67.8249, 1.5540) scale(0.0040, -0.0040)" d="M0 0c0 31 25 56 56 56s55 -25 55 -56s-24 -56 -55 -56s-56 25 -56 56z" fill="currentColor"/>
<path transform="translate(27.4099, 4.5540) scale(0.0040, -0.0040)" d="M0 0c0 31 25 56 56 56s55 -25 55 -56s-24 -56 -55 -56s-56 25 -56 56z" fill="currentColor"/>
<path transform="translate(27.4099, 3.5540) scale(0.0040, -0.0040)" d="M0 0c0 31 25 56 56 56s55 -25 55 -56s-24 -56 -55 -56s-56 25 -56 56z" fill="currentColor"/>
<path transform="translate(27.4099, 2.5540) scale(0.0040, -0.0040)" d="M0 0c0 31 25 56 56 56s55 -25 55 -56s-24 -56 -55 -56s-56 25 -56 56z" fill="currentColor"/>
<path transform="translate(27.4099, 1.5540) scale(0.0040, -0.0040)" d="M0 0c0 31 25 56 56 56s55 -25 55 -56s-24 -56 -55 -56s-56 25 -56 56z" fill="currentColor"/>
<path transform="translate(81.2966, 4.5540) scale(0.0040, -0.0040)" d="M0 0c0 31 25 56 56 56s55 -25 55 -56s-24 -56 -55 -56s-56 25 -56 56z" fill="currentColor"/>
<path transform="translate(81.2966, 3.5540) scale(0.0040, -0.0040)" d="M0 0c0 31 25 56 56 56s55 -25 55 -56s-24 -56 -55 -56s-56 25 -56 56z" fill="currentColor"/>
<path transform="translate(81.2966, 2.5540) scale(0.0040, -0.0040)" d="M0 0c0 31 25 56 56 56s55 -25 55 -56s-24 -56 -55 -56s-56 25 -56 56z" fill="currentColor"/>
<path transform="translate(81.2966, 1.5540) scale(0.0040, -0.0040)" d="M0 0c0 31 25 56 56 56s55 -25 55 -56s-24 -56 -55 -56s-56 25 -56 56z" fill="currentColor"/>
<path transform="translate(75.2337, 4.0540) scale(0.0040, -0.0040)" d="M214 111c-49 0 -68 -43 -68 -88c0 -75 57 -134 132 -134c49 0 67 43 67 88c0 75 -56 134 -131 134zM491 0c0 -43 -34 -76 -72 -98c-53 -30 -113 -41 -173 -41s-121 11 -174 41c-38 22 -72 55 -72 98s34 76 72 98c53 30 114 41 174 41s120 -11 173 -41
c38 -22 72 -55 72 -98z" fill="currentColor"/>
<path transform="translate(75.2337, 1.5540) scale(0.0040, -0.0040)" d="M214 111c-49 0 -68 -43 -68 -88c0 -75 57 -134 132 -134c49 0 67 43 67 88c0 75 -56 134 -131 134zM491 0c0 -43 -34 -76 -72 -98c-53 -30 -113 -41 -173 -41s-121 11 -174 41c-38 22 -72 55 -72 98s34 76 72 98c53 30 114 41 174 41s120 -11 173 -41
c38 -22 72 -55 72 -98z" fill="currentColor"/>
<path transform="translate(61.7621, 4.0540) scale(0.0040, -0.0040)" d="M214 111c-49 0 -68 -43 -68 -88c0 -75 57 -134 132 -134c49 0 67 43 67 88c0 75 -56 134 -131 134zM491 0c0 -43 -34 -76 -72 -98c-53 -30 -113 -41 -173 -41s-121 11 -174 41c-38 22 -72 55 -72 98s34 76 72 98c53 30 114 41 174 41s120 -11 173 -41
c38 -22 72 -55 72 -98z" fill="currentColor"/>
<path transform="translate(61.7621, 3.0540) scale(0.0040, -0.0040)" d="M214 111c-49 0 -68 -43 -68 -88c0 -75 57 -134 132 -134c49 0 67 43 67 88c0 75 -56 134 -131 134zM491 0c0 -43 -34 -76 -72 -98c-53 -30 -113 -41 -173 -41s-121 11 -174 41c-38 22 -72 55 -72 98s34 76 72 98c53 30 114 41 174 41s120 -11 173 -41
c38 -22 72 -55 72 -98z" fill="currentColor"/>
<path transform="translate(69.1709, 3.0540) scale(0.0040, -0.0040)" d="M214 111c-49 0 -68 -43 -68 -88c0 -75 57 -134 132 -134c49 0 67 43 67 88c0 75 -56 134 -131 134zM491 0c0 -43 -34 -76 -72 -98c-53 -30 -113 -41 -173 -41s-121 11 -174 41c-38 22 -72 55 -72 98s34 76 72 98c53 30 114 41 174 41s120 -11 173 -41
c38 -22 72 -55 72 -98z" fill="currentColor"/>
<path transform="translate(69.1709, 0.5540) scale(0.0040, -0.0040)" d="M214 111c-49 0 -68 -43 -68 -88c0 -75 57 -134 132 -134c49 0 67 43 67 88c0 75 -56 134 -131 134zM491 0c0 -43 -34 -76 -72 -98c-53 -30 -113 -41 -173 -41s-121 11 -174 41c-38 22 -72 55 -72 98s34 76 72 98c53 30 114 41 174 41s120 -11 173 -41
c38 -22 72 -55 72 -98z" fill="currentColor"/>
<path transform="translate(28.7559, 3.5540) scale(0.0040, -0.0040)" d="M214 111c-49 0 -68 -43 -68 -88c0 -75 57 -134 132 -134c49 0 67 43 67 88c0 75 -56 134 -131 134zM491 0c0 -43 -34 -76 -72 -98c-53 -30 -113 -41 -173 -41s-121 11 -174 41c-38 22 -72 55 -72 98s34 76 72 98c53 30 114 41 174 41s120 -11 173 -41
c38 -22 72 -55 72 -98z" fill="currentColor"/>
<path transform="translate(28.7559, 4.5540) scale(0.0040, -0.0040)" d="M214 111c-49 0 -68 -43 -68 -88c0 -75 57 -134 132 -134c49 0 67 43 67 88c0 75 -56 134 -131 134zM491 0c0 -43 -34 -76 -72 -98c-53 -30 -113 -41 -173 -41s-121 11 -174 41c-38 22 -72 55 -72 98s34 76 72 98c53 30 114 41 174 41s120 -11 173 -41
c38 -22 72 -55 72 -98z" fill="currentColor"/>
<path transform="translate(21.3471, 1.5540) scale(0.0040, -0.0040)" d="M214 111c-49 0 -68 -43 -68 -88c0 -75 57 -134 132 -134c49 0 67 43 67 88c0 75 -56 134 -131 134zM491 0c0 -43 -34 -76 -72 -98c-53 -30 -113 -41 -173 -41s-121 11 -174 41c-38 22 -72 55 -72 98s34 76 72 98c53 30 114 41 174 41s120 -11 173 -41
c38 -22 72 -55 72 -98z" fill="currentColor"/>
<path transform="translate(21.3471, 2.5540) scale(0.0040, -0.0040)" d="M214 111c-49 0 -68 -43 -68 -88c0 -75 57 -134 132 -134c49 0 67 43 67 88c0 75 -56 134 -131 134zM491 0c0 -43 -34 -76 -72 -98c-53 -30 -113 -41 -173 -41s-121 11 -174 41c-38 22 -72 55 -72 98s34 76 72 98c53 30 114 41 174 41s120 -11 173 -41
c38 -22 72 -55 72 -98z" fill="currentColor"/>
<path transform="translate(88.7054, 2.5540) scale(0.0040, -0.0040)" d="M214 111c-49 0 -68 -43 -68 -88c0 -75 57 -134 132 -134c49 0 67 43 67 88c0 75 -56 134 -131 134zM491 0c0 -43 -34 -76 -72 -98c-53 -30 -113 -41 -173 -41s-121 11 -174 41c-38 22 -72 55 -72 98s34 76 72 98c53 30 114 41 174 41s120 -11 173 -41
c38 -22 72 -55 72 -98z" fill="currentColor"/>
<path transform="translate(82.6425, 2.5540) scale(0.0040, -0.0040)" d="M214 111c-49 0 -68 -43 -68 -88c0 -75 57 -134 132 -134c49 0 67 43 67 88c0 75 -56 134 -131 134zM491 0c0 -43 -34 -76 -72 -98c-53 -30 -113 -41 -173 -41s-121 11 -174 41c-38 22 -72 55 -72 98s34 76 72 98c53 30 114 41 174 41s120 -11 173 -41
c38 -22 72 -55 72 -98z" fill="currentColor"/>
<path transform="translate(82.6425, 1.5540) scale(0.0040, -0.0040)" d="M214 111c-49 0 -68 -43 -68 -88c0 -75 57 -134 132 -134c49 0 67 43 67 88c0 75 -56 134 -131 134zM491 0c0 -43 -34 -76 -72 -98c-53 -30 -113 -41 -173 -41s-121 11 -174 41c-38 22 -72 55 -72 98s34 76 72 98c53 30 114 41 174 41s120 -11 173 -41
c38 -22 72 -55 72 -98z" fill="currentColor"/>
<path transform="translate(88.7054, 3.5540) scale(0.0040, -0.0040)" d="M214 111c-49 0 -68 -43 -68 -88c0 -75 57 -134 132 -134c49 0 67 43 67 88c0 75 -56 134 -131 134zM491 0c0 -43 -34 -76 -72 -98c-53 -30 -113 -41 -173 -41s-121 11 -174 41c-38 22 -72 55 -72 98s34 76 72 98c53 30 114 41 174 41s120 -11 173 -41
c38 -22 72 -55 72 -98z" fill="currentColor"/>
<path transform="translate(34.8187, 3.5540) scale(0.0040, -0.0040)" d="M214 111c-49 0 -68 -43 -68 -88c0 -75 57 -134 132 -134c49 0 67 43 67 88c0 75 -56 134 -131 134zM491 0c0 -43 -34 -76 -72 -98c-53 -30 -113 -41 -173 -41s-121 11 -174 41c-38 22 -72 55 -72 98s34 76 72 98c53 30 114 41 174 41s120 -11 173 -41
c38 -22 72 -55 72 -98z" fill="currentColor"/>
<path transform="translate(34.8187, 2.5540) scale(0.0040, -0.0040)" d="M214 111c-49 0 -68 -43 -68 -88c0 -75 57 -134 132 -134c49 0 67 43 67 88c0 75 -56 134 -131 134zM491 0c0 -43 -34 -76 -72 -98c-53 -30 -113 -41 -173 -41s-121 11 -174 41c-38 22 -72 55 -72 98s34 76 72 98c53 30 114 41 174 41s120 -11 173 -41
c38 -22 72 -55 72 -98z" fill="currentColor"/>
<path transform="translate(48.2904, 4.0540) scale(0.0040, -0.0040)" d="M214 111c-49 0 -68 -43 -68 -88c0 -75 57 -134 132 -134c49 0 67 43 67 88c0 75 -56 134 -131 134zM491 0c0 -43 -34 -76 -72 -98c-53 -30 -113 -41 -173 -41s-121 11 -174 41c-38 22 -72 55 -72 98s34 76 72 98c53 30 114 41 174 41s120 -11 173 -41
c38 -22 72 -55 72 -98z" fill="currentColor"/>
<path transform="translate(15.2843, 3.0540) scale(0.0040, -0.0040)" d="M214 111c-49 0 -68 -43 -68 -88c0 -75 57 -134 132 -134c49 0 67 43 67 88c0 75 -56 134 -131 134zM491 0c0 -43 -34 -76 -72 -98c-53 -30 -113 -41 -173 -41s-121 11 -174 41c-38 22 -72 55 -72 98s34 76 72 98c53 30 114 41 174 41s120 -11 173 -41
c38 -22 72 -55 72 -98z" fill="currentColor"/>
<path transform="translate(15.2843, 2.0540) scale(0.0040, -0.0040)" d="M214 111c-49 0 -68 -43 -68 -88c0 -75 57 -134 132 -134c49 0 67 43 67 88c0 75 -56 134 -131 134zM491 0c0 -43 -34 -76 -72 -98c-53 -30 -113 -41 -173 -41s-121 11 -174 41c-38 22 -72 55 -72 98s34 76 72 98c53 30 114 41 174 41s120 -11 173 -41
c38 -22 72 -55 72 -98z" fill="currentColor"/>
<path transform="translate(10.2843, 3.0540) scale(0.0040, -0.0040)" d="M322 0c0 -32 6 -73 44 -73c29 0 56 32 87 32c123 0 229 -90 229 -209c0 -168 -91 -250 -262 -250c-82 0 -152 62 -152 142c0 42 34 76 76 76s76 -34 76 -76c0 -39 -48 -37 -48 -76c0 -23 23 -37 48 -37c115 0 138 89 138 221c0 106 -13 181 -105 181
c-71 0 -116 -71 -116 -148c0 -10 -8 -15 -15 -15s-14 5 -14 15c0 75 -30 146 -83 198v-470c0 -6 -5 -11 -11 -11h-21c-6 0 -11 5 -11 11v978c0 6 5 11 11 11h21c6 0 11 -5 11 -11v-470c53 52 83 123 83 198c0 10 7 15 14 15s15 -5 15 -15c0 -77 45 -148 116 -148
c92 0 105 75 105 181c0 132 -23 221 -138 221c-25 0 -48 -14 -48 -37c0 -39 48 -37 48 -76c0 -42 -34 -76 -76 -76s-76 34 -76 76c0 80 70 142 152 142c171 0 262 -82 262 -250c0 -119 -106 -209 -229 -209c-31 0 -58 32 -87 32c-38 0 -44 -41 -44 -73zM128 -500h-117
c-6 0 -11 5 -11 11v978c0 6 5 11 11 11h117c6 0 11 -5 11 -11v-978c0 -6 -5 -11 -11 -11z" fill="currentColor"/>
<path transform="translate(55.6992, 2.5540) scale(0.0040, -0.0040)" d="M214 111c-49 0 -68 -43 -68 -88c0 -75 57 -134 132 -134c49 0 67 43 67 88c0 75 -56 134 -131 134zM491 0c0 -43 -34 -76 -72 -98c-53 -30 -113 -41 -173 -41s-121 11 -174 41c-38 22 -72 55 -72 98s34 76 72 98c53 30 114 41 174 41s120 -11 173 -41
c38 -22 72 -55 72 -98z" fill="currentColor"/>
<path transform="translate(55.6992, 3.5540) scale(0.0040, -0.0040)" d="M214 111c-49 0 -68 -43 -68 -88c0 -75 57 -134 132 -134c49 0 67 43 67 88c0 75 -56 134 -131 134zM491 0c0 -43 -34 -76 -72 -98c-53 -30 -113 -41 -173 -41s-121 11 -174 41c-38 22 -72 55 -72 98s34 76 72 98c53 30 114 41 174 41s120 -11 173 -41
c38 -22 72 -55 72 -98z" fill="currentColor"/>
<path transform="translate(48.2904, 1.5540) scale(0.0040, -0.0040)" d="M214 111c-49 0 -68 -43 -68 -88c0 -75 57 -134 132 -134c49 0 67 43 67 88c0 75 -56 134 -131 134zM491 0c0 -43 -34 -76 -72 -98c-53 -30 -113 -41 -173 -41s-121 11 -174 41c-38 22 -72 55 -72 98s34 76 72 98c53 30 114 41 174 41s120 -11 173 -41
c38 -22 72 -55 72 -98z" fill="currentColor"/>
<path transform="translate(42.2276, 4.5540) scale(0.0040, -0.0040)" d="M214 111c-49 0 -68 -43 -68 -88c0 -75 57 -134 132 -134c49 0 67 43 67 88c0 75 -56 134 -131 134zM491 0c0 -43 -34 -76 -72 -98c-53 -30 -113 -41 -173 -41s-121 11 -174 41c-38 22 -72 55 -72 98s34 76 72 98c53 30 114 41 174 41s120 -11 173 -41
c38 -22 72 -55 72 -98z" fill="currentColor"/>
<path transform="translate(42.2276, 2.0540) scale(0.0040, -0.0040)" d="M214 111c-49 0 -68 -43 -68 -88c0 -75 57 -134 132 -134c49 0 67 43 67 88c0 75 -56 134 -131 134zM491 0c0 -43 -34 -76 -72 -98c-53 -30 -113 -41 -173 -41s-121 11 -174 41c-38 22 -72 55 -72 98s34 76 72 98c53 30 114 41 174 41s120 -11 173 -41
c38 -22 72 -55 72 -98z" fill="currentColor"/>
</svg>
