<svg xmlns="http://www.w3.org/2000/svg" xmlns:xlink="http://www.w3.org/1999/xlink" version="1.2" width="113.49mm" height="13.03mm" viewBox="9.4843 -0.0240 71.7587 8.2358" preserveAspectRatio="xMinYMin meet">
<path transform="translate(40.8816, 5.2760) scale(0.0040, -0.0040)" d="M0 0c0 31 25 56 56 56s55 -25 55 -56s-24 -56 -55 -56s-56 25 -56 56z" fill="currentColor"/>
<path transform="translate(40.8816, 4.2760) scale(0.0040, -0.0040)" d="M0 0c0 31 25 56 56 56s55 -25 55 -56s-24 -56 -55 -56s-56 25 -56 56z" fill="currentColor"/>
<path transform="translate(40.8816, 3.2760) scale(0.0040, -0.0040)" d="M0 0c0 31 25 56 56 56s55 -25 55 -56s-24 -56 -55 -56s-56 25 -56 56z" fill="currentColor"/>
<path transform="translate(40.8816, 2.2760) scale(0.0040, -0.0040)" d="M0 0c0 31 25 56 56 56s55 -25 55 -56s-24 -56 -55 -56s-56 25 -56 56z" fill="currentColor"/>
<path transform="translate(54.3532, 5.2760) scale(0.0040, -0.0040)" d="M0 0c0 31 25 56 56 56s55 -25 55 -56s-24 -56 -55 -56s-56 25 -56 56z" fill="currentColor"/>
<path transform="translate(54.3532, 4.2760) scale(0.0040, -0.0040)" d="M0 0c0 31 25 56 56 56s55 -25 55 -56s-24 -56 -55 -56s-56 25 -56 56z" fill="currentColor"/>
<path transform="translate(54.3532, 3.2760) scale(0.0040, -0.0040)" d="M0 0c0 31 25 56 56 56s55 -25 55 -56s-24 -56 -55 -56s-56 25 -56 56z" fill="currentColor"/>
<path transform="translate(54.3532, 2.2760) scale(0.0040, -0.0040)" d="M0 0c0 31 25 56 56 56s55 -25 55 -56s-24 -56 -55 -56s-56 25 -56 56z" fill="currentColor"/>
<path transform="translate(27.4099, 5.2760) scale(0.0040, -0.0040)" d="M0 0c0 31 25 56 56 56s55 -25 55 -56s-24 -56 -55 -56s-56 25 -56 56z" fill="currentColor"/>
<path transform="translate(27.4099, 4.2760) scale(0.0040, -0.0040)" d="M0 0c0 31 25 56 56 56s55 -25 55 -56s-24 -56 -55 -56s-56 25 -56 56z" fill="currentColor"/>
<path transform="translate(27.4099, 3.2760) scale(0.0040, -0.0040)" d="M0 0c0 31 25 56 56 56s55 -25 55 -56s-24 -56 -55 -56s-56 25 -56 56z" fill="currentColor"/>
<path transform="translate(27.4099, 2.2760) scale(0.0040, -0.0040)" d="M0 0c0 31 25 56 56 56s55 -25 55 -56s-24 -56 -55 -56s-56 25 -56 56z" fill="currentColor"/>
<path transform="translate(67.8249, 5.2760) scale(0.0040, -0.0040)" d="M0 0c0 31 25 56 56 56s55 -25 55 -56s-24 -56 -55 -56s-56 25 -56 56z" fill="currentColor"/>
<path transform="translate(67.8249, 4.2760) scale(0.0040, -0.0040)" d="M0 0c0 31 25 56 56 56s55 -25 55 -56s-24 -56 -55 -56s-56 25 -56 56z" fill="currentColor"/>
<path transform="translate(67.8249, 3.2760) scale(0.0040, -0.0040)" d="M0 0c0 31 25 56 56 56s55 -25 55 -56s-24 -56 -55 -56s-56 25 -56 56z" fill="currentColor"/>
<path transform="translate(67.8249, 2.2760) scale(0.0040, -0.0040)" d="M0 0c0 31 25 56 56 56s55 -25 55 -56s-24 -56 -55 -56s-56 25 -56 56z" fill="currentColor"/>
<line transform="translate(9.4843, 5.7760)" stroke-linejoin="round" stroke-linecap="round" stroke-width="0.1073" stroke="currentColor" x1="0.0537" y1="-0.0000" x2="71.7587" y2="-0.0000"/>
<line transform="translate(9.4843, 4.7760)" stroke-linejoin="round" stroke-linecap="round" stroke-width="0.1073" stroke="currentColor" x1="0.0537" y1="-0.0000" x2="71.7587" y2="-0.0000"/>
<line transform="translate(9.4843, 3.7760)" stroke-linejoin="round" stroke-linecap="round" stroke-width="0.1073" stroke="currentColor" x1="0.0537" y1="-0.0000" x2="71.7587" y2="-0.0000"/>
<line transform="translate(9.4843, 2.7760)" stroke-linejoin="round" stroke-linecap="round" stroke-width="0.1073" stroke="currentColor" x1="0.0537" y1="-0.0000" x2="71.7587" y2="-0.0000"/>
<line transform="translate(9.4843, 1.7760)" stroke-linejoin="round" stroke-linecap="round" stroke-width="0.1073" stroke="currentColor" x1="0.0537" y1="-0.0000" x2="71.7587" y2="-0.0000"/>
<rect transform="translate(0.0000, 6.7760)" x="14.7931" y="-0.1037" width="2.9472" height="0.2073" ry="0.1037" fill="currentColor"/>
<rect transform="translate(0.0000, 6.7760)" x="20.8559" y="-0.1037" width="2.9472" height="0.2073" ry="0.1037" fill="currentColor"/>
<path transform="translate(69.1709, 4.7760) scale(0.0040, -0.0040)" d="M214 111c-49 0 -68 -43 -68 -88c0 -75 57 -134 132 -134c49 0 67 43 67 88c0 75 -56 134 -131 134zM491 0c0 -43 -34 -76 -72 -98c-53 -30 -113 -41 -173 -41s-121 11 -174 41c-38 22 -72 55 -72 98s34 76 72 98c53 30 114 41 174 41s120 -11 173 -41
c38 -22 72 -55 72 -98z" fill="currentColor"/>
<path transform="translate(69.1709, 3.7760) scale(0.0040, -0.0040)" d="M214 111c-49 0 -68 -43 -68 -88c0 -75 57 -134 132 -134c49 0 67 43 67 88c0 75 -56 134 -131 134zM491 0c0 -43 -34 -76 -72 -98c-53 -30 -113 -41 -173 -41s-121 11 -174 41c-38 22 -72 55 -72 98s34 76 72 98c53 30 114 41 174 41s120 -11 173 -41
c38 -22 72 -55 72 -98z" fill="currentColor"/>
<path transform="translate(61.7621, 2.7760) scale(0.0040, -0.0040)" d="M214 111c-49 0 -68 -43 -68 -88c0 -75 57 -134 132 -134c49 0 67 43 67 88c0 75 -56 134 -131 134zM491 0c0 -43 -34 -76 -72 -98c-53 -30 -113 -41 -173 -41s-121 11 -174 41c-38 22 -72 55 -72 98s34 76 72 98c53 30 114 41 174 41s120 -11 173 -41
c38 -22 72 -55 72 -98z" fill="currentColor"/>
<path transform="translate(61.7621, 6.2760) scale(0.0040, -0.0040)" d="M214 111c-49 0 -68 -43 -68 -88c0 -75 57 -134 132 -134c49 0 67 43 67 88c0 75 -56 134 -131 134zM491 0c0 -43 -34 -76 -72 -98c-53 -30 -113 -41 -173 -41s-121 11 -174 41c-38 22 -72 55 -72 98s34 76 72 98c53 30 114 41 174 41s120 -11 173 -41
c38 -22 72 -55 72 -98z" fill="currentColor"/>
<path transform="translate(55.6992, 4.2760) scale(0.0040, -0.0040)" d="M214 111c-49 0 -68 -43 -68 -88c0 -75 57 -134 132 -134c49 0 67 43 67 88c0 75 -56 134 -131 134zM491 0c0 -43 -34 -76 -72 -98c-53 -30 -113 -41 -173 -41s-121 11 -174 41c-38 22 -72 55 -72 98s34 76 72 98c53 30 114 41 174 41s120 -11 173 -41
c38 -22 72 -55 72 -98z" fill="currentColor"/>
<path transform="translate(55.6992, 6.2760) scale(0.0040, -0.0040)" d="M214 111c-49 0 -68 -43 -68 -88c0 -75 57 -134 132 -134c49 0 67 43 67 88c0 75 -56 134 -131 134zM491 0c0 -43 -34 -76 -72 -98c-53 -30 -113 -41 -173 -41s-121 11 -174 41c-38 22 -72 55 -72 98s34 76 72 98c53 30 114 41 174 41s120 -11 173 -41
c38 -22 72 -55 72 -98z" fill="currentColor"/>
<path transform="translate(15.2843, 3.7760)" stroke-width="0.0858" stroke-linejoin="round" stroke-linecap="round" stroke="currentColor" fill="currentColor" d="M1.18239730639731 3.75C2.13711637825169 4.60710706459302 5.89051784647215 4.60710706459302 6.84523691832653 3.75C5.89051784647215 4.47834515983112 2.13711637825169 4.47834515983112 1.18239730639731 3.75z"/>
<path transform="translate(28.7559, 3.7760)" stroke-width="0.0858" stroke-linejoin="round" stroke-linecap="round" stroke="currentColor" fill="currentColor" d="M1.18239730639731 2.75C2.13711637825169 3.60710706459302 5.89051784647215 3.60710706459302 6.84523691832653 2.75C5.89051784647215 3.47834515983112 2.13711637825169 3.47834515983112 1.18239730639731 2.75z"/>
<path transform="translate(42.2276, 3.7760)" stroke-width="0.0858" stroke-linejoin="round" stroke-linecap="round" stroke="currentColor" fill="currentColor" d="M1.18239730639731 -1.19792257985391C2.13711637825168 -2.05502964444693 5.89051784647214 -2.05502964444693 6.84523691832652 -1.19792257985391C5.89051784647214 -1.92626773968503 2.13711637825168 -1.92626773968503 1.18239730639731 -1.19792257985391z"/>
<path transform="translate(55.6992, 3.7760)" stroke-width="0.0858" stroke-linejoin="round" stroke-linecap="round" stroke="currentColor" fill="currentColor" d="M2.16479461279462 3.0C2.91202196919841 3.76063074158126 5.11561225552542 3.76063074158126 5.86283961192922 3.0C5.11561225552542 3.63186883681936 2.91202196919841 3.63186883681936 2.16479461279462 3.0z"/>
<path transform="translate(69.1709, 3.7760)" stroke-width="0.0858" stroke-linejoin="round" stroke-linecap="round" stroke="currentColor" fill="currentColor" d="M2.16479461279461 0.225C2.91202196919841 0.985630741581265 5.11561225552542 0.985630741581265 5.86283961192922 0.225C5.11561225552542 0.856868836819361 2.91202196919841 0.856868836819361 2.16479461279461 0.225z"/>
<path transform="translate(28.7559, 3.7760) scale(0.0040, -0.0040)" d="M214 111c-49 0 -68 -43 -68 -88c0 -75 57 -134 132 -134c49 0 67 43 67 88c0 75 -56 134 -131 134zM491 0c0 -43 -34 -76 -72 -98c-53 -30 -113 -41 -173 -41s-121 11 -174 41c-38 22 -72 55 -72 98s34 76 72 98c53 30 114 41 174 41s120 -11 173 -41
c38 -22 72 -55 72 -98z" fill="currentColor"/>
<path transform="translate(28.7559, 5.7760) scale(0.0040, -0.0040)" d="M214 111c-49 0 -68 -43 -68 -88c0 -75 57 -134 132 -134c49 0 67 43 67 88c0 75 -56 134 -131 134zM491 0c0 -43 -34 -76 -72 -98c-53 -30 -113 -41 -173 -41s-121 11 -174 41c-38 22 -72 55 -72 98s34 76 72 98c53 30 114 41 174 41s120 -11 173 -41
c38 -22 72 -55 72 -98z" fill="currentColor"/>
<path transform="translate(21.3471, 4.7760) scale(0.0040, -0.0040)" d="M214 111c-49 0 -68 -43 -68 -88c0 -75 57 -134 132 -134c49 0 67 43 67 88c0 75 -56 134 -131 134zM491 0c0 -43 -34 -76 -72 -98c-53 -30 -113 -41 -173 -41s-121 11 -174 41c-38 22 -72 55 -72 98s34 76 72 98c53 30 114 41 174 41s120 -11 173 -41
c38 -22 72 -55 72 -98z" fill="currentColor"/>
<path transform="translate(21.3471, 6.7760) scale(0.0040, -0.0040)" d="M214 111c-49 0 -68 -43 -68 -88c0 -75 57 -134 132 -134c49 0 67 43 67 88c0 75 -56 134 -131 134zM491 0c0 -43 -34 -76 -72 -98c-53 -30 -113 -41 -173 -41s-121 11 -174 41c-38 22 -72 55 -72 98s34 76 72 98c53 30 114 41 174 41s120 -11 173 -41
c38 -22 72 -55 72 -98z" fill="currentColor"/>
<path transform="translate(75.2337, 5.7760) scale(0.0040, -0.0040)" d="M214 111c-49 0 -68 -43 -68 -88c0 -75 57 -134 132 -134c49 0 67 43 67 88c0 75 -56 134 -131 134zM491 0c0 -43 -34 -76 -72 -98c-53 -30 -113 -41 -173 -41s-121 11 -174 41c-38 22 -72 55 -72 98s34 76 72 98c53 30 114 41 174 41s120 -11 173 -41
c38 -22 72 -55 72 -98z" fill="currentColor"/>
<path transform="translate(75.2337, 3.7760) scale(0.0040, -0.0040)" d="M214 111c-49 0 -68 -43 -68 -88c0 -75 57 -134 132 -134c49 0 67 43 67 88c0 75 -56 134 -131 134zM491 0c0 -43 -34 -76 -72 -98c-53 -30 -113 -41 -173 -41s-121 11 -174 41c-38 22 -72 55 -72 98s34 76 72 98c53 30 114 41 174 41s120 -11 173 -41
c38 -22 72 -55 72 -98z" fill="currentColor"/>
<path transform="translate(10.2843, 4.7760) scale(0.0040, -0.0040)" d="M378 263c4 0 7 1 11 1c156 0 257 -129 257 -262c0 -76 -34 -154 -108 -210c-22 -17 -46 -29 -72 -37c3 -34 4 -68 4 -102c0 -20 0 -40 -1 -60c-7 -121 -90 -228 -209 -228c-108 0 -196 87 -196 196c0 58 53 104 112 104c54 0 95 -48 95 -104c0 -52 -43 -95 -95 -95
c-10 0 -20 2 -29 6c26 -38 68 -63 116 -63c96 0 156 91 162 190c1 19 2 37 2 56c0 30 -2 60 -4 90c-29 -5 -58 -8 -88 -8c-188 0 -333 173 -333 375c0 177 130 307 246 442c-20 62 -38 125 -46 190c-6 52 -7 104 -7 157c0 115 55 223 148 290c3 2 7 3 11 3s8 -1 11 -4
c71 -83 134 -244 134 -357c0 -143 -85 -255 -178 -364c21 -68 40 -137 57 -206zM462 -202c67 24 111 94 111 162c0 89 -65 178 -170 190c24 -115 46 -230 59 -352zM75 26c0 -134 129 -245 263 -245c28 0 55 2 81 6c-14 126 -36 244 -61 363c-79 -8 -124 -61 -124 -119
c0 -43 25 -89 80 -121c5 -5 7 -11 7 -16c0 -12 -10 -23 -22 -23c-3 0 -6 1 -9 2c-81 43 -118 116 -118 186c0 89 58 175 161 198c-14 58 -29 116 -46 173c-106 -122 -212 -244 -212 -404zM406 1042c-99 -47 -162 -148 -162 -257c0 -73 20 -132 38 -191
c79 97 144 199 144 324c0 53 -4 76 -20 124z" fill="currentColor"/>
<path transform="translate(15.2843, 5.7760) scale(0.0040, -0.0040)" d="M214 111c-49 0 -68 -43 -68 -88c0 -75 57 -134 132 -134c49 0 67 43 67 88c0 75 -56 134 -131 134zM491 0c0 -43 -34 -76 -72 -98c-53 -30 -113 -41 -173 -41s-121 11 -174 41c-38 22 -72 55 -72 98s34 76 72 98c53 30 114 41 174 41s120 -11 173 -41
c38 -22 72 -55 72 -98z" fill="currentColor"/>
<path transform="translate(15.2843, 6.7760) scale(0.0040, -0.0040)" d="M214 111c-49 0 -68 -43 -68 -88c0 -75 57 -134 132 -134c49 0 67 43 67 88c0 75 -56 134 -131 134zM491 0c0 -43 -34 -76 -72 -98c-53 -30 -113 -41 -173 -41s-121 11 -174 41c-38 22 -72 55 -72 98s34 76 72 98c53 30 114 41 174 41s120 -11 173 -41
c38 -22 72 -55 72 -98z" fill="currentColor"/>
<path transform="translate(48.2904, 5.7760) scale(0.0040, -0.0040)" d="M214 111c-49 0 -68 -43 -68 -88c0 -75 57 -134 132 -134c49 0 67 43 67 88c0 75 -56 134 -131 134zM491 0c0 -43 -34 -76 -72 -98c-53 -30 -113 -41 -173 -41s-121 11 -174 41c-38 22 -72 55 -72 98s34 76 72 98c53 30 114 41 174 41s120 -11 173 -41
c38 -22 72 -55 72 -98z" fill="currentColor"/>
<path transform="translate(48.2904, 3.2760) scale(0.0040, -0.0040)" d="M214 111c-49 0 -68 -43 -68 -88c0 -75 57 -134 132 -134c49 0 67 43 67 88c0 75 -56 134 -131 134zM491 0c0 -43 -34 -76 -72 -98c-53 -30 -113 -41 -173 -41s-121 11 -174 41c-38 22 -72 55 -72 98s34 76 72 98c53 30 114 41 174 41s120 -11 173 -41
c38 -22 72 -55 72 -98z" fill="currentColor"/>
<path transform="translate(34.8187, 5.7760) scale(0.0040, -0.0040)" d="M214 111c-49 0 -68 -43 -68 -88c0 -75 57 -134 132 -134c49 0 67 43 67 88c0 75 -56 134 -131 134zM491 0c0 -43 -34 -76 -72 -98c-53 -30 -113 -41 -173 -41s-121 11 -174 41c-38 22 -72 55 -72 98s34 76 72 98c53 30 114 41 174 41s120 -11 173 -41
c38 -22 72 -55 72 -98z" fill="currentColor"/>
<path transform="translate(34.8187, 3.2760) scale(0.0040, -0.0040)" d="M214 111c-49 0 -68 -43 -68 -88c0 -75 57 -134 132 -134c49 0 67 43 67 88c0 75 -56 134 -131 134zM491 0c0 -43 -34 -76 -72 -98c-53 -30 -113 -41 -173 -41s-121 11 -174 41c-38 22 -72 55 -72 98s34 76 72 98c53 30 114 41 174 41s120 -11 173 -41
c38 -22 72 -55 72 -98z" fill="currentColor"/>
<path transform="translate(42.2276, 5.2760) scale(0.0040, -0.0040)" d="M214 111c-49 0 -68 -43 -68 -88c0 -75 57 -134 132 -134c49 0 67 43 67 88c0 75 -56 134 -131 134zM491 0c0 -43 -34 -76 -72 -98c-53 -30 -113 -41 -173 -41s-121 11 -174 41c-38 22 -72 55 -72 98s34 76 72 98c53 30 114 41 174 41s120 -11 173 -41
c38 -22 72 -55 72 -98z" fill="currentColor"/>
<path transform="translate(42.2276, 3.2760) scale(0.0040, -0.0040)" d="M214 111c-49 0 -68 -43 -68 -88c0 -75 57 -134 132 -134c49 0 67 43 67 88c0 75 -56 134 -131 134zM491 0c0 -43 -34 -76 -72 -98c-53 -30 -113 -41 -173 -41s-121 11 -174 41c-38 22 -72 55 -72 98s34 76 72 98c53 30 114 41 174 41s120 -11 173 -41
c38 -22 72 -55 72 -98z" fill="currentColor"/>
</svg>
