<svg xmlns="http://www.w3.org/2000/svg" xmlns:xlink="http://www.w3.org/1999/xlink" version="1.2" width="71.08mm" height="16.35mm" viewBox="9.4843 -0.0000 44.9439 10.3393">
<rect transform="translate(0.0000, 9.7853)" x="14.9553" y="-0.1037" width="1.9735" height="0.2073" ry="0.1037" fill="currentColor"/>
<rect transform="translate(0.0000, 3.7853)" x="51.1392" y="-0.1037" width="1.9735" height="0.2073" ry="0.1037" fill="currentColor"/>
<line transform="translate(9.4843, 8.7853)" stroke-linejoin="round" stroke-linecap="round" stroke-width="0.1073" stroke="currentColor" x1="0.0537" y1="-0.0000" x2="44.9439" y2="-0.0000"/>
<line transform="translate(9.4843, 7.7853)" stroke-linejoin="round" stroke-linecap="round" stroke-width="0.1073" stroke="currentColor" x1="0.0537" y1="-0.0000" x2="44.9439" y2="-0.0000"/>
<line transform="translate(9.4843, 6.7853)" stroke-linejoin="round" stroke-linecap="round" stroke-width="0.1073" stroke="currentColor" x1="0.0537" y1="-0.0000" x2="44.9439" y2="-0.0000"/>
<line transform="translate(9.4843, 5.7853)" stroke-linejoin="round" stroke-linecap="round" stroke-width="0.1073" stroke="currentColor" x1="0.0537" y1="-0.0000" x2="44.9439" y2="-0.0000"/>
<line transform="translate(9.4843, 4.7853)" stroke-linejoin="round" stroke-linecap="round" stroke-width="0.1073" stroke="currentColor" x1="0.0537" y1="-0.0000" x2="44.9439" y2="-0.0000"/>
<rect transform="translate(25.5712, 6.7853)" x="-0.0697" y="-2.0000" width="0.1395" height="3.3189" ry="0.0444" fill="currentColor"/>
<text transform="translate(24.3253, 3.1317)" font-family="Century Schoolbook L" font-size="2.2000" text-anchor="start" fill="currentColor">
<tspan>
F</tspan>
</text>
<path transform="translate(24.3253, 8.2853) scale(0.0040, -0.0040)" d="M217 139c57 0 112 -31 112 -94c0 -72 -55 -121 -102 -149c-35 -21 -74 -35 -115 -35c-57 0 -112 31 -112 94c0 72 55 121 102 149c35 21 74 35 115 35z" fill="currentColor"/>
<rect transform="translate(22.5575, 6.7853)" x="-0.0697" y="-1.5000" width="0.1395" height="3.3189" ry="0.0444" fill="currentColor"/>
<text transform="translate(21.3116, 3.1317)" font-family="Century Schoolbook L" font-size="2.2000" text-anchor="start" fill="currentColor">
<tspan>
E</tspan>
</text>
<path transform="translate(21.3116, 8.7853) scale(0.0040, -0.0040)" d="M217 139c57 0 112 -31 112 -94c0 -72 -55 -121 -102 -149c-35 -21 -74 -35 -115 -35c-57 0 -112 31 -112 94c0 72 55 121 102 149c35 21 74 35 115 35z" fill="currentColor"/>
<rect transform="translate(19.5438, 6.7853)" x="-0.0697" y="-1.0000" width="0.1395" height="3.3189" ry="0.0444" fill="currentColor"/>
<text transform="translate(18.2979, 3.1317)" font-family="Century Schoolbook L" font-size="2.2000" text-anchor="start" fill="currentColor">
<tspan>
D</tspan>
</text>
<path transform="translate(18.2979, 9.2853) scale(0.0040, -0.0040)" d="M217 139c57 0 112 -31 112 -94c0 -72 -55 -121 -102 -149c-35 -21 -74 -35 -115 -35c-57 0 -112 31 -112 94c0 72 55 121 102 149c35 21 74 35 115 35z" fill="currentColor"/>
<rect transform="translate(51.5379, 6.7853)" x="-0.0697" y="-2.8189" width="0.1395" height="3.3189" ry="0.0444" fill="currentColor"/>
<text transform="translate(51.4681, 1.6313)" font-family="Century Schoolbook L" font-size="2.2000" text-anchor="start" fill="currentColor">
<tspan>
A</tspan>
</text>
<path transform="translate(51.4681, 3.7853) scale(0.0040, -0.0040)" d="M217 139c57 0 112 -31 112 -94c0 -72 -55 -121 -102 -149c-35 -21 -74 -35 -115 -35c-57 0 -112 31 -112 94c0 72 55 121 102 149c35 21 74 35 115 35z" fill="currentColor"/>
<rect transform="translate(36.4694, 6.7853)" x="-0.0697" y="-0.3189" width="0.1395" height="3.3189" ry="0.0444" fill="currentColor"/>
<text transform="translate(36.3997, 3.0937)" font-family="Century Schoolbook L" font-size="2.2000" text-anchor="start" fill="currentColor">
<tspan>
C</tspan>
</text>
<path transform="translate(36.3997, 6.2853) scale(0.0040, -0.0040)" d="M217 139c57 0 112 -31 112 -94c0 -72 -55 -121 -102 -149c-35 -21 -74 -35 -115 -35c-57 0 -112 31 -112 94c0 72 55 121 102 149c35 21 74 35 115 35z" fill="currentColor"/>
<rect transform="translate(33.4558, 6.7853)" x="-0.0697" y="0.1811" width="0.1395" height="3.1522" ry="0.0444" fill="currentColor"/>
<text transform="translate(33.3860, 3.1317)" font-family="Century Schoolbook L" font-size="2.2000" text-anchor="start" fill="currentColor">
<tspan>
B</tspan>
</text>
<path transform="translate(33.3860, 6.7853) scale(0.0040, -0.0040)" d="M217 139c57 0 112 -31 112 -94c0 -72 -55 -121 -102 -149c-35 -21 -74 -35 -115 -35c-57 0 -112 31 -112 94c0 72 55 121 102 149c35 21 74 35 115 35z" fill="currentColor"/>
<rect transform="translate(31.5985, 6.7853)" x="-0.0697" y="-3.0000" width="0.1395" height="3.3189" ry="0.0444" fill="currentColor"/>
<text transform="translate(30.3527, 2.1853)" font-family="Century Schoolbook L" font-size="2.2000" text-anchor="start" fill="currentColor">
<tspan>
A</tspan>
</text>
<path transform="translate(30.3527, 7.2853) scale(0.0040, -0.0040)" d="M217 139c57 0 112 -31 112 -94c0 -72 -55 -121 -102 -149c-35 -21 -74 -35 -115 -35c-57 0 -112 31 -112 94c0 72 55 121 102 149c35 21 74 35 115 35z" fill="currentColor"/>
<rect transform="translate(28.5849, 6.7853)" x="-0.0697" y="-2.5000" width="0.1395" height="3.3189" ry="0.0444" fill="currentColor"/>
<text transform="translate(27.3390, 2.6474)" font-family="Century Schoolbook L" font-size="2.2000" text-anchor="start" fill="currentColor">
<tspan>
G</tspan>
</text>
<path transform="translate(27.3390, 7.7853) scale(0.0040, -0.0040)" d="M217 139c57 0 112 -31 112 -94c0 -72 -55 -121 -102 -149c-35 -21 -74 -35 -115 -35c-57 0 -112 31 -112 94c0 72 55 121 102 149c35 21 74 35 115 35z" fill="currentColor"/>
<rect transform="translate(39.4831, 6.7853)" x="-0.0697" y="-0.8189" width="0.1395" height="3.3189" ry="0.0444" fill="currentColor"/>
<text transform="translate(39.4134, 3.1317)" font-family="Century Schoolbook L" font-size="2.2000" text-anchor="start" fill="currentColor">
<tspan>
D</tspan>
</text>
<path transform="translate(39.4134, 5.7853) scale(0.0040, -0.0040)" d="M217 139c57 0 112 -31 112 -94c0 -72 -55 -121 -102 -149c-35 -21 -74 -35 -115 -35c-57 0 -112 31 -112 94c0 72 55 121 102 149c35 21 74 35 115 35z" fill="currentColor"/>
<rect transform="translate(16.5301, 6.7853)" x="-0.0697" y="-0.5000" width="0.1395" height="3.3189" ry="0.0444" fill="currentColor"/>
<path transform="translate(10.2843, 7.7853) scale(0.0040, -0.0040)" d="M378 263c4 0 7 1 11 1c156 0 257 -129 257 -262c0 -76 -34 -154 -108 -210c-22 -17 -46 -29 -72 -37c3 -34 4 -68 4 -102c0 -20 0 -40 -1 -60c-7 -121 -90 -228 -209 -228c-108 0 -196 87 -196 196c0 58 53 104 112 104c54 0 95 -48 95 -104c0 -52 -43 -95 -95 -95
c-10 0 -20 2 -29 6c26 -38 68 -63 116 -63c96 0 156 91 162 190c1 19 2 37 2 56c0 30 -2 60 -4 90c-29 -5 -58 -8 -88 -8c-188 0 -333 173 -333 375c0 177 130 307 246 442c-20 62 -38 125 -46 190c-6 52 -7 104 -7 157c0 115 55 223 148 290c3 2 7 3 11 3s8 -1 11 -4
c71 -83 134 -244 134 -357c0 -143 -85 -255 -178 -364c21 -68 40 -137 57 -206zM462 -202c67 24 111 94 111 162c0 89 -65 178 -170 190c24 -115 46 -230 59 -352zM75 26c0 -134 129 -245 263 -245c28 0 55 2 81 6c-14 126 -36 244 -61 363c-79 -8 -124 -61 -124 -119
c0 -43 25 -89 80 -121c5 -5 7 -11 7 -16c0 -12 -10 -23 -22 -23c-3 0 -6 1 -9 2c-81 43 -118 116 -118 186c0 89 58 175 161 198c-14 58 -29 116 -46 173c-106 -122 -212 -244 -212 -404zM406 1042c-99 -47 -162 -148 -162 -257c0 -73 20 -132 38 -191
c79 97 144 199 144 324c0 53 -4 76 -20 124z" fill="currentColor"/>
<text transform="translate(15.2843, 3.0937)" font-family="Century Schoolbook L" font-size="2.2000" text-anchor="start" fill="currentColor">
<tspan>
C</tspan>
</text>
<path transform="translate(15.2843, 9.7853) scale(0.0040, -0.0040)" d="M217 139c57 0 112 -31 112 -94c0 -72 -55 -121 -102 -149c-35 -21 -74 -35 -115 -35c-57 0 -112 31 -112 94c0 72 55 121 102 149c35 21 74 35 115 35z" fill="currentColor"/>
<rect transform="translate(48.5242, 6.7853)" x="-0.0697" y="-2.3189" width="0.1395" height="3.3189" ry="0.0444" fill="currentColor"/>
<text transform="translate(48.4544, 2.0934)" font-family="Century Schoolbook L" font-size="2.2000" text-anchor="start" fill="currentColor">
<tspan>
G</tspan>
</text>
<path transform="translate(48.4544, 4.2853) scale(0.0040, -0.0040)" d="M217 139c57 0 112 -31 112 -94c0 -72 -55 -121 -102 -149c-35 -21 -74 -35 -115 -35c-57 0 -112 31 -112 94c0 72 55 121 102 149c35 21 74 35 115 35z" fill="currentColor"/>
<rect transform="translate(45.5105, 6.7853)" x="-0.0697" y="-1.8189" width="0.1395" height="3.3189" ry="0.0444" fill="currentColor"/>
<text transform="translate(45.4407, 2.6313)" font-family="Century Schoolbook L" font-size="2.2000" text-anchor="start" fill="currentColor">
<tspan>
F</tspan>
</text>
<path transform="translate(45.4407, 4.7853) scale(0.0040, -0.0040)" d="M217 139c57 0 112 -31 112 -94c0 -72 -55 -121 -102 -149c-35 -21 -74 -35 -115 -35c-57 0 -112 31 -112 94c0 72 55 121 102 149c35 21 74 35 115 35z" fill="currentColor"/>
<rect transform="translate(42.4968, 6.7853)" x="-0.0697" y="-1.3189" width="0.1395" height="3.3189" ry="0.0444" fill="currentColor"/>
<text transform="translate(42.4271, 3.1313)" font-family="Century Schoolbook L" font-size="2.2000" text-anchor="start" fill="currentColor">
<tspan>
E</tspan>
</text>
<path transform="translate(42.4271, 5.2853) scale(0.0040, -0.0040)" d="M217 139c57 0 112 -31 112 -94c0 -72 -55 -121 -102 -149c-35 -21 -74 -35 -115 -35c-57 0 -112 31 -112 94c0 72 55 121 102 149c35 21 74 35 115 35z" fill="currentColor"/>
</svg>
