<svg xmlns="http://www.w3.org/2000/svg" xmlns:xlink="http://www.w3.org/1999/xlink" version="1.2" width="71.05mm" height="14.94mm" viewBox="9.4843 -0.0000 44.9242 9.4458" preserveAspectRatio="xMinYMin meet">
<rect transform="translate(0.0000, 7.7229)" x="14.9553" y="-0.1037" width="1.9735" height="0.2073" ry="0.1037" fill="currentColor"/>
<rect transform="translate(0.0000, 1.7229)" x="51.1195" y="-0.1037" width="1.9735" height="0.2073" ry="0.1037" fill="currentColor"/>
<line transform="translate(9.4843, 6.7229)" stroke-linejoin="round" stroke-linecap="round" stroke-width="0.1073" stroke="currentColor" x1="0.0537" y1="-0.0000" x2="44.9242" y2="-0.0000"/>
<line transform="translate(9.4843, 5.7229)" stroke-linejoin="round" stroke-linecap="round" stroke-width="0.1073" stroke="currentColor" x1="0.0537" y1="-0.0000" x2="44.9242" y2="-0.0000"/>
<line transform="translate(9.4843, 4.7229)" stroke-linejoin="round" stroke-linecap="round" stroke-width="0.1073" stroke="currentColor" x1="0.0537" y1="-0.0000" x2="44.9242" y2="-0.0000"/>
<line transform="translate(9.4843, 3.7229)" stroke-linejoin="round" stroke-linecap="round" stroke-width="0.1073" stroke="currentColor" x1="0.0537" y1="-0.0000" x2="44.9242" y2="-0.0000"/>
<line transform="translate(9.4843, 2.7229)" stroke-linejoin="round" stroke-linecap="round" stroke-width="0.1073" stroke="currentColor" x1="0.0537" y1="-0.0000" x2="44.9242" y2="-0.0000"/>
<rect transform="translate(25.5712, 4.7229)" x="-0.0697" y="1.3189" width="0.1395" height="0.0000" ry="0.0000" fill="currentColor"/>
<text transform="translate(24.3253, 1.6692)" font-family="Century Schoolbook L" font-size="2.2000" text-anchor="start" fill="currentColor">
<tspan>
A</tspan>
</text>
<path transform="translate(24.3253, 6.2229) scale(0.0040, -0.0040)" d="M217 139c57 0 112 -31 112 -94c0 -72 -55 -121 -102 -149c-35 -21 -74 -35 -115 -35c-57 0 -112 31 -112 94c0 72 55 121 102 149c35 21 74 35 115 35z" fill="currentColor"/>
<rect transform="translate(22.5575, 4.7229)" x="-0.0697" y="1.8189" width="0.1395" height="0.0000" ry="0.0000" fill="currentColor"/>
<text transform="translate(21.3116, 1.6313)" font-family="Century Schoolbook L" font-size="2.2000" text-anchor="start" fill="currentColor">
<tspan>
G</tspan>
</text>
<path transform="translate(21.3116, 6.7229) scale(0.0040, -0.0040)" d="M217 139c57 0 112 -31 112 -94c0 -72 -55 -121 -102 -149c-35 -21 -74 -35 -115 -35c-57 0 -112 31 -112 94c0 72 55 121 102 149c35 21 74 35 115 35z" fill="currentColor"/>
<rect transform="translate(19.5438, 4.7229)" x="-0.0697" y="2.3189" width="0.1395" height="0.0000" ry="0.0000" fill="currentColor"/>
<text transform="translate(18.2979, 1.6692)" font-family="Century Schoolbook L" font-size="2.2000" text-anchor="start" fill="currentColor">
<tspan>
F</tspan>
</text>
<path transform="translate(18.2979, 7.2229) scale(0.0040, -0.0040)" d="M217 139c57 0 112 -31 112 -94c0 -72 -55 -121 -102 -149c-35 -21 -74 -35 -115 -35c-57 0 -112 31 -112 94c0 72 55 121 102 149c35 21 74 35 115 35z" fill="currentColor"/>
<rect transform="translate(51.5182, 4.7229)" x="-0.0697" y="-2.8189" width="0.1395" height="0.0000" ry="0.0000" fill="currentColor"/>
<text transform="translate(51.4484, 9.4078)" font-family="Century Schoolbook L" font-size="2.2000" text-anchor="start" fill="currentColor">
<tspan>
C</tspan>
</text>
<path transform="translate(51.4484, 1.7229) scale(0.0040, -0.0040)" d="M217 139c57 0 112 -31 112 -94c0 -72 -55 -121 -102 -149c-35 -21 -74 -35 -115 -35c-57 0 -112 31 -112 94c0 72 55 121 102 149c35 21 74 35 115 35z" fill="currentColor"/>
<rect transform="translate(36.4498, 4.7229)" x="-0.0697" y="-0.3189" width="0.1395" height="0.0000" ry="0.0000" fill="currentColor"/>
<text transform="translate(36.3800, 9.3699)" font-family="Century Schoolbook L" font-size="2.2000" text-anchor="start" fill="currentColor">
<tspan>
E</tspan>
</text>
<path transform="translate(36.3800, 4.2229) scale(0.0040, -0.0040)" d="M217 139c57 0 112 -31 112 -94c0 -72 -55 -121 -102 -149c-35 -21 -74 -35 -115 -35c-57 0 -112 31 -112 94c0 72 55 121 102 149c35 21 74 35 115 35z" fill="currentColor"/>
<rect transform="translate(33.4361, 4.7229)" x="-0.0697" y="0.1811" width="0.1395" height="0.0000" ry="0.0000" fill="currentColor"/>
<text transform="translate(33.3663, 9.3699)" font-family="Century Schoolbook L" font-size="2.2000" text-anchor="start" fill="currentColor">
<tspan>
D</tspan>
</text>
<path transform="translate(33.3663, 4.7229) scale(0.0040, -0.0040)" d="M217 139c57 0 112 -31 112 -94c0 -72 -55 -121 -102 -149c-35 -21 -74 -35 -115 -35c-57 0 -112 31 -112 94c0 72 55 121 102 149c35 21 74 35 115 35z" fill="currentColor"/>
<rect transform="translate(31.5985, 4.7229)" x="-0.0697" y="0.3189" width="0.1395" height="0.0000" ry="0.0000" fill="currentColor"/>
<text transform="translate(30.3527, 9.4078)" font-family="Century Schoolbook L" font-size="2.2000" text-anchor="start" fill="currentColor">
<tspan>
C</tspan>
</text>
<path transform="translate(30.3527, 5.2229) scale(0.0040, -0.0040)" d="M217 139c57 0 112 -31 112 -94c0 -72 -55 -121 -102 -149c-35 -21 -74 -35 -115 -35c-57 0 -112 31 -112 94c0 72 55 121 102 149c35 21 74 35 115 35z" fill="currentColor"/>
<rect transform="translate(28.5849, 4.7229)" x="-0.0697" y="0.8189" width="0.1395" height="0.0000" ry="0.0000" fill="currentColor"/>
<text transform="translate(27.3390, 1.6692)" font-family="Century Schoolbook L" font-size="2.2000" text-anchor="start" fill="currentColor">
<tspan>
B</tspan>
</text>
<path transform="translate(27.3390, 5.7229) scale(0.0040, -0.0040)" d="M217 139c57 0 112 -31 112 -94c0 -72 -55 -121 -102 -149c-35 -21 -74 -35 -115 -35c-57 0 -112 31 -112 94c0 72 55 121 102 149c35 21 74 35 115 35z" fill="currentColor"/>
<rect transform="translate(39.4634, 4.7229)" x="-0.0697" y="-0.8189" width="0.1395" height="0.0000" ry="0.0000" fill="currentColor"/>
<text transform="translate(39.3937, 9.3699)" font-family="Century Schoolbook L" font-size="2.2000" text-anchor="start" fill="currentColor">
<tspan>
F</tspan>
</text>
<path transform="translate(39.3937, 3.7229) scale(0.0040, -0.0040)" d="M217 139c57 0 112 -31 112 -94c0 -72 -55 -121 -102 -149c-35 -21 -74 -35 -115 -35c-57 0 -112 31 -112 94c0 72 55 121 102 149c35 21 74 35 115 35z" fill="currentColor"/>
<rect transform="translate(16.5301, 4.7229)" x="-0.0697" y="2.8189" width="0.1395" height="0.0000" ry="0.0000" fill="currentColor"/>
<path transform="translate(10.2843, 3.7229) scale(0.0040, -0.0040)" d="M558 -125c0 28 22 51 50 51s51 -23 51 -51s-23 -51 -51 -51s-50 23 -50 51zM558 125c0 28 22 51 50 51s51 -23 51 -51s-23 -51 -51 -51s-50 23 -50 51zM231 264c172 0 294 -88 294 -251c0 -263 -262 -416 -515 -523c-3 -3 -7 -4 -10 -4c-7 0 -14 7 -14 14c0 3 1 7 4 10
c201 118 410 265 410 492c0 119 -61 234 -169 234c-72 0 -124 -53 -148 -123c10 4 19 6 29 6c55 0 100 -45 100 -100c0 -58 -44 -106 -100 -106c-60 0 -112 47 -112 106c0 133 101 245 231 245z" fill="currentColor"/>
<text transform="translate(15.2843, 1.6692)" font-family="Century Schoolbook L" font-size="2.2000" text-anchor="start" fill="currentColor">
<tspan>
E</tspan>
</text>
<path transform="translate(15.2843, 7.7229) scale(0.0040, -0.0040)" d="M217 139c57 0 112 -31 112 -94c0 -72 -55 -121 -102 -149c-35 -21 -74 -35 -115 -35c-57 0 -112 31 -112 94c0 72 55 121 102 149c35 21 74 35 115 35z" fill="currentColor"/>
<rect transform="translate(48.5045, 4.7229)" x="-0.0697" y="-2.3189" width="0.1395" height="0.0000" ry="0.0000" fill="currentColor"/>
<text transform="translate(48.4347, 9.3699)" font-family="Century Schoolbook L" font-size="2.2000" text-anchor="start" fill="currentColor">
<tspan>
B</tspan>
</text>
<path transform="translate(48.4347, 2.2229) scale(0.0040, -0.0040)" d="M217 139c57 0 112 -31 112 -94c0 -72 -55 -121 -102 -149c-35 -21 -74 -35 -115 -35c-57 0 -112 31 -112 94c0 72 55 121 102 149c35 21 74 35 115 35z" fill="currentColor"/>
<rect transform="translate(45.4908, 4.7229)" x="-0.0697" y="-1.8189" width="0.1395" height="0.0000" ry="0.0000" fill="currentColor"/>
<text transform="translate(45.4211, 9.4078)" font-family="Century Schoolbook L" font-size="2.2000" text-anchor="start" fill="currentColor">
<tspan>
A</tspan>
</text>
<path transform="translate(45.4211, 2.7229) scale(0.0040, -0.0040)" d="M217 139c57 0 112 -31 112 -94c0 -72 -55 -121 -102 -149c-35 -21 -74 -35 -115 -35c-57 0 -112 31 -112 94c0 72 55 121 102 149c35 21 74 35 115 35z" fill="currentColor"/>
<rect transform="translate(42.4771, 4.7229)" x="-0.0697" y="-1.3189" width="0.1395" height="0.0000" ry="0.0000" fill="currentColor"/>
<text transform="translate(42.4074, 9.4078)" font-family="Century Schoolbook L" font-size="2.2000" text-anchor="start" fill="currentColor">
<tspan>
G</tspan>
</text>
<path transform="translate(42.4074, 3.2229) scale(0.0040, -0.0040)" d="M217 139c57 0 112 -31 112 -94c0 -72 -55 -121 -102 -149c-35 -21 -74 -35 -115 -35c-57 0 -112 31 -112 94c0 72 55 121 102 149c35 21 74 35 115 35z" fill="currentColor"/>
</svg>
