<svg xmlns="http://www.w3.org/2000/svg" xmlns:xlink="http://www.w3.org/1999/xlink" version="1.2" width="71.05mm" height="14.94mm" viewBox="9.4843 -0.0000 44.9242 9.4458" preserveAspectRatio="xMinYMin meet">
<rect transform="translate(0.0000, 7.7229)" x="14.9553" y="-0.1037" width="1.9735" height="0.2073" ry="0.1037" fill="currentColor"/>
<rect transform="translate(0.0000, 1.7229)" x="51.1195" y="-0.1037" width="1.9735" height="0.2073" ry="0.1037" fill="currentColor"/>
<line transform="translate(9.4843, 6.7229)" stroke-linejoin="round" stroke-linecap="round" stroke-width="0.1073" stroke="currentColor" x1="0.0537" y1="-0.0000" x2="44.9242" y2="-0.0000"/>
<line transform="translate(9.4843, 5.7229)" stroke-linejoin="round" stroke-linecap="round" stroke-width="0.1073" stroke="currentColor" x1="0.0537" y1="-0.0000" x2="44.9242" y2="-0.0000"/>
<line transform="translate(9.4843, 4.7229)" stroke-linejoin="round" stroke-linecap="round" stroke-width="0.1073" stroke="currentColor" x1="0.0537" y1="-0.0000" x2="44.9242" y2="-0.0000"/>
<line transform="translate(9.4843, 3.7229)" stroke-linejoin="round" stroke-linecap="round" stroke-width="0.1073" stroke="currentColor" x1="0.0537" y1="-0.0000" x2="44.9242" y2="-0.0000"/>
<line transform="translate(9.4843, 2.7229)" stroke-linejoin="round" stroke-linecap="round" stroke-width="0.1073" stroke="currentColor" x1="0.0537" y1="-0.0000" x2="44.9242" y2="-0.0000"/>
<rect transform="translate(25.5712, 4.7229)" x="-0.0697" y="1.3189" width="0.1395" height="0.0000" ry="0.0000" fill="currentColor"/>
<text transform="translate(24.3253, 1.6313)" font-family="Century Schoolbook L" font-size="2.2000" text-anchor="start" fill="currentColor">
<tspan>
G</tspan>
</text>
<path transform="translate(24.3253, 6.2229) scale(0.0040, -0.0040)" d="M217 139c57 0 112 -31 112 -94c0 -72 -55 -121 -102 -149c-35 -21 -74 -35 -115 -35c-57 0 -112 31 -112 94c0 72 55 121 102 149c35 21 74 35 115 35z" fill="currentColor"/>
<rect transform="translate(22.5575, 4.7229)" x="-0.0697" y="1.8189" width="0.1395" height="0.0000" ry="0.0000" fill="currentColor"/>
<text transform="translate(21.3116, 1.6692)" font-family="Century Schoolbook L" font-size="2.2000" text-anchor="start" fill="currentColor">
<tspan>
F</tspan>
</text>
<path transform="translate(21.3116, 6.7229) scale(0.0040, -0.0040)" d="M217 139c57 0 112 -31 112 -94c0 -72 -55 -121 -102 -149c-35 -21 -74 -35 -115 -35c-57 0 -112 31 -112 94c0 72 55 121 102 149c35 21 74 35 115 35z" fill="currentColor"/>
<rect transform="translate(19.5438, 4.7229)" x="-0.0697" y="2.3189" width="0.1395" height="0.0000" ry="0.0000" fill="currentColor"/>
<text transform="translate(18.2979, 1.6692)" font-family="Century Schoolbook L" font-size="2.2000" text-anchor="start" fill="currentColor">
<tspan>
E</tspan>
</text>
<path transform="translate(18.2979, 7.2229) scale(0.0040, -0.0040)" d="M217 139c57 0 112 -31 112 -94c0 -72 -55 -121 -102 -149c-35 -21 -74 -35 -115 -35c-57 0 -112 31 -112 94c0 72 55 121 102 149c35 21 74 35 115 35z" fill="currentColor"/>
<rect transform="translate(51.5182, 4.7229)" x="-0.0697" y="-2.8189" width="0.1395" height="0.0000" ry="0.0000" fill="currentColor"/>
<text transform="translate(51.4484, 9.3699)" font-family="Century Schoolbook L" font-size="2.2000" text-anchor="start" fill="currentColor">
<tspan>
B</tspan>
</text>
<path transform="translate(51.4484, 1.7229) scale(0.0040, -0.0040)" d="M217 139c57 0 112 -31 112 -94c0 -72 -55 -121 -102 -149c-35 -21 -74 -35 -115 -35c-57 0 -112 31 -112 94c0 72 55 121 102 149c35 21 74 35 115 35z" fill="currentColor"/>
<rect transform="translate(36.4498, 4.7229)" x="-0.0697" y="-0.3189" width="0.1395" height="0.0000" ry="0.0000" fill="currentColor"/>
<text transform="translate(36.3800, 9.3699)" font-family="Century Schoolbook L" font-size="2.2000" text-anchor="start" fill="currentColor">
<tspan>
D</tspan>
</text>
<path transform="translate(36.3800, 4.2229) scale(0.0040, -0.0040)" d="M217 139c57 0 112 -31 112 -94c0 -72 -55 -121 -102 -149c-35 -21 -74 -35 -115 -35c-57 0 -112 31 -112 94c0 72 55 121 102 149c35 21 74 35 115 35z" fill="currentColor"/>
<rect transform="translate(33.4361, 4.7229)" x="-0.0697" y="0.1811" width="0.1395" height="0.0000" ry="0.0000" fill="currentColor"/>
<text transform="translate(33.3663, 1.6313)" font-family="Century Schoolbook L" font-size="2.2000" text-anchor="start" fill="currentColor">
<tspan>
C</tspan>
</text>
<path transform="translate(33.3663, 4.7229) scale(0.0040, -0.0040)" d="M217 139c57 0 112 -31 112 -94c0 -72 -55 -121 -102 -149c-35 -21 -74 -35 -115 -35c-57 0 -112 31 -112 94c0 72 55 121 102 149c35 21 74 35 115 35z" fill="currentColor"/>
<rect transform="translate(31.5985, 4.7229)" x="-0.0697" y="0.3189" width="0.1395" height="0.0000" ry="0.0000" fill="currentColor"/>
<text transform="translate(30.3527, 1.6692)" font-family="Century Schoolbook L" font-size="2.2000" text-anchor="start" fill="currentColor">
<tspan>
B</tspan>
</text>
<path transform="translate(30.3527, 5.2229) scale(0.0040, -0.0040)" d="M217 139c57 0 112 -31 112 -94c0 -72 -55 -121 -102 -149c-35 -21 -74 -35 -115 -35c-57 0 -112 31 -112 94c0 72 55 121 102 149c35 21 74 35 115 35z" fill="currentColor"/>
<rect transform="translate(28.5849, 4.7229)" x="-0.0697" y="0.8189" width="0.1395" height="0.0000" ry="0.0000" fill="currentColor"/>
<text transform="translate(27.3390, 1.6692)" font-family="Century Schoolbook L" font-size="2.2000" text-anchor="start" fill="currentColor">
<tspan>
A</tspan>
</text>
<path transform="translate(27.3390, 5.7229) scale(0.0040, -0.0040)" d="M217 139c57 0 112 -31 112 -94c0 -72 -55 -121 -102 -149c-35 -21 -74 -35 -115 -35c-57 0 -112 31 -112 94c0 72 55 121 102 149c35 21 74 35 115 35z" fill="currentColor"/>
<rect transform="translate(39.4634, 4.7229)" x="-0.0697" y="-0.8189" width="0.1395" height="0.0000" ry="0.0000" fill="currentColor"/>
<text transform="translate(39.3937, 9.3699)" font-family="Century Schoolbook L" font-size="2.2000" text-anchor="start" fill="currentColor">
<tspan>
E</tspan>
</text>
<path transform="translate(39.3937, 3.7229) scale(0.0040, -0.0040)" d="M217 139c57 0 112 -31 112 -94c0 -72 -55 -121 -102 -149c-35 -21 -74 -35 -115 -35c-57 0 -112 31 -112 94c0 72 55 121 102 149c35 21 74 35 115 35z" fill="currentColor"/>
<rect transform="translate(16.5301, 4.7229)" x="-0.0697" y="2.8189" width="0.1395" height="0.0000" ry="0.0000" fill="currentColor"/>
<path transform="translate(10.2843, 4.7229) scale(0.0040, -0.0040)" d="M322 0c0 -32 6 -73 44 -73c29 0 56 32 87 32c123 0 229 -90 229 -209c0 -168 -91 -250 -262 -250c-82 0 -152 62 -152 142c0 42 34 76 76 76s76 -34 76 -76c0 -39 -48 -37 -48 -76c0 -23 23 -37 48 -37c115 0 138 89 138 221c0 106 -13 181 -105 181
c-71 0 -116 -71 -116 -148c0 -10 -8 -15 -15 -15s-14 5 -14 15c0 75 -30 146 -83 198v-470c0 -6 -5 -11 -11 -11h-21c-6 0 -11 5 -11 11v978c0 6 5 11 11 11h21c6 0 11 -5 11 -11v-470c53 52 83 123 83 198c0 10 7 15 14 15s15 -5 15 -15c0 -77 45 -148 116 -148
c92 0 105 75 105 181c0 132 -23 221 -138 221c-25 0 -48 -14 -48 -37c0 -39 48 -37 48 -76c0 -42 -34 -76 -76 -76s-76 34 -76 76c0 80 70 142 152 142c171 0 262 -82 262 -250c0 -119 -106 -209 -229 -209c-31 0 -58 32 -87 32c-38 0 -44 -41 -44 -73zM128 -500h-117
c-6 0 -11 5 -11 11v978c0 6 5 11 11 11h117c6 0 11 -5 11 -11v-978c0 -6 -5 -11 -11 -11z" fill="currentColor"/>
<text transform="translate(15.2843, 1.6692)" font-family="Century Schoolbook L" font-size="2.2000" text-anchor="start" fill="currentColor">
<tspan>
D</tspan>
</text>
<path transform="translate(15.2843, 7.7229) scale(0.0040, -0.0040)" d="M217 139c57 0 112 -31 112 -94c0 -72 -55 -121 -102 -149c-35 -21 -74 -35 -115 -35c-57 0 -112 31 -112 94c0 72 55 121 102 149c35 21 74 35 115 35z" fill="currentColor"/>
<rect transform="translate(48.5045, 4.7229)" x="-0.0697" y="-2.3189" width="0.1395" height="0.0000" ry="0.0000" fill="currentColor"/>
<text transform="translate(48.4347, 9.4078)" font-family="Century Schoolbook L" font-size="2.2000" text-anchor="start" fill="currentColor">
<tspan>
A</tspan>
</text>
<path transform="translate(48.4347, 2.2229) scale(0.0040, -0.0040)" d="M217 139c57 0 112 -31 112 -94c0 -72 -55 -121 -102 -149c-35 -21 -74 -35 -115 -35c-57 0 -112 31 -112 94c0 72 55 121 102 149c35 21 74 35 115 35z" fill="currentColor"/>
<rect transform="translate(45.4908, 4.7229)" x="-0.0697" y="-1.8189" width="0.1395" height="0.0000" ry="0.0000" fill="currentColor"/>
<text transform="translate(45.4211, 9.4078)" font-family="Century Schoolbook L" font-size="2.2000" text-anchor="start" fill="currentColor">
<tspan>
G</tspan>
</text>
<path transform="translate(45.4211, 2.7229) scale(0.0040, -0.0040)" d="M217 139c57 0 112 -31 112 -94c0 -72 -55 -121 -102 -149c-35 -21 -74 -35 -115 -35c-57 0 -112 31 -112 94c0 72 55 121 102 149c35 21 74 35 115 35z" fill="currentColor"/>
<rect transform="translate(42.4771, 4.7229)" x="-0.0697" y="-1.3189" width="0.1395" height="0.0000" ry="0.0000" fill="currentColor"/>
<text transform="translate(42.4074, 9.3699)" font-family="Century Schoolbook L" font-size="2.2000" text-anchor="start" fill="currentColor">
<tspan>
F</tspan>
</text>
<path transform="translate(42.4074, 3.2229) scale(0.0040, -0.0040)" d="M217 139c57 0 112 -31 112 -94c0 -72 -55 -121 -102 -149c-35 -21 -74 -35 -115 -35c-57 0 -112 31 -112 94c0 72 55 121 102 149c35 21 74 35 115 35z" fill="currentColor"/>
</svg>
