<svg xmlns="http://www.w3.org/2000/svg" xmlns:xlink="http://www.w3.org/1999/xlink" version="1.2" width="100%" height="100%" viewBox="9.4843 -0.0000 44.9242 9.4458" preserveAspectRatio="xMinYMin meet">
<rect transform="translate(0.0000, 7.7229)" x="14.9553" y="-0.1037" width="1.9735" height="0.2073" ry="0.1037" fill="currentColor"/>
<rect transform="translate(0.0000, 1.7229)" x="51.1195" y="-0.1037" width="1.9735" height="0.2073" ry="0.1037" fill="currentColor"/>
<line transform="translate(9.4843, 6.7229)" stroke-linejoin="round" stroke-linecap="round" stroke-width="0.1073" stroke="currentColor" x1="0.0537" y1="-0.0000" x2="44.9242" y2="-0.0000"/>
<line transform="translate(9.4843, 5.7229)" stroke-linejoin="round" stroke-linecap="round" stroke-width="0.1073" stroke="currentColor" x1="0.0537" y1="-0.0000" x2="44.9242" y2="-0.0000"/>
<line transform="translate(9.4843, 4.7229)" stroke-linejoin="round" stroke-linecap="round" stroke-width="0.1073" stroke="currentColor" x1="0.0537" y1="-0.0000" x2="44.9242" y2="-0.0000"/>
<line transform="translate(9.4843, 3.7229)" stroke-linejoin="round" stroke-linecap="round" stroke-width="0.1073" stroke="currentColor" x1="0.0537" y1="-0.0000" x2="44.9242" y2="-0.0000"/>
<line transform="translate(9.4843, 2.7229)" stroke-linejoin="round" stroke-linecap="round" stroke-width="0.1073" stroke="currentColor" x1="0.0537" y1="-0.0000" x2="44.9242" y2="-0.0000"/>
<rect transform="translate(25.5712, 4.7229)" x="-0.0697" y="1.3189" width="0.1395" height="0.0000" ry="0.0000" fill="currentColor"/>
<text transform="translate(24.3253, 1.6692)" font-family="Century Schoolbook L" font-size="2.2000" text-anchor="start" fill="currentColor">
<tspan>
F</tspan>
</text>
<path transform="translate(24.3253, 6.2229) scale(0.0040, -0.0040)" d="M217 139c57 0 112 -31 112 -94c0 -72 -55 -121 -102 -149c-35 -21 -74 -35 -115 -35c-57 0 -112 31 -112 94c0 72 55 121 102 149c35 21 74 35 115 35z" fill="currentColor"/>
<rect transform="translate(22.5575, 4.7229)" x="-0.0697" y="1.8189" width="0.1395" height="0.0000" ry="0.0000" fill="currentColor"/>
<text transform="translate(21.3116, 1.6692)" font-family="Century Schoolbook L" font-size="2.2000" text-anchor="start" fill="currentColor">
<tspan>
E</tspan>
</text>
<path transform="translate(21.3116, 6.7229) scale(0.0040, -0.0040)" d="M217 139c57 0 112 -31 112 -94c0 -72 -55 -121 -102 -149c-35 -21 -74 -35 -115 -35c-57 0 -112 31 -112 94c0 72 55 121 102 149c35 21 74 35 115 35z" fill="currentColor"/>
<rect transform="translate(19.5438, 4.7229)" x="-0.0697" y="2.3189" width="0.1395" height="0.0000" ry="0.0000" fill="currentColor"/>
<text transform="translate(18.2979, 1.6692)" font-family="Century Schoolbook L" font-size="2.2000" text-anchor="start" fill="currentColor">
<tspan>
D</tspan>
</text>
<path transform="translate(18.2979, 7.2229) scale(0.0040, -0.0040)" d="M217 139c57 0 112 -31 112 -94c0 -72 -55 -121 -102 -149c-35 -21 -74 -35 -115 -35c-57 0 -112 31 -112 94c0 72 55 121 102 149c35 21 74 35 115 35z" fill="currentColor"/>
<rect transform="translate(51.5182, 4.7229)" x="-0.0697" y="-2.8189" width="0.1395" height="0.0000" ry="0.0000" fill="currentColor"/>
<text transform="translate(51.4484, 9.4078)" font-family="Century Schoolbook L" font-size="2.2000" text-anchor="start" fill="currentColor">
<tspan>
A</tspan>
</text>
<path transform="translate(51.4484, 1.7229) scale(0.0040, -0.0040)" d="M217 139c57 0 112 -31 112 -94c0 -72 -55 -121 -102 -149c-35 -21 -74 -35 -115 -35c-57 0 -112 31 -112 94c0 72 55 121 102 149c35 21 74 35 115 35z" fill="currentColor"/>
<rect transform="translate(36.4498, 4.7229)" x="-0.0697" y="-0.3189" width="0.1395" height="0.0000" ry="0.0000" fill="currentColor"/>
<text transform="translate(36.3800, 9.4078)" font-family="Century Schoolbook L" font-size="2.2000" text-anchor="start" fill="currentColor">
<tspan>
C</tspan>
</text>
<path transform="translate(36.3800, 4.2229) scale(0.0040, -0.0040)" d="M217 139c57 0 112 -31 112 -94c0 -72 -55 -121 -102 -149c-35 -21 -74 -35 -115 -35c-57 0 -112 31 -112 94c0 72 55 121 102 149c35 21 74 35 115 35z" fill="currentColor"/>
<rect transform="translate(33.4361, 4.7229)" x="-0.0697" y="0.1811" width="0.1395" height="0.0000" ry="0.0000" fill="currentColor"/>
<text transform="translate(33.3663, 1.6692)" font-family="Century Schoolbook L" font-size="2.2000" text-anchor="start" fill="currentColor">
<tspan>
B</tspan>
</text>
<path transform="translate(33.3663, 4.7229) scale(0.0040, -0.0040)" d="M217 139c57 0 112 -31 112 -94c0 -72 -55 -121 -102 -149c-35 -21 -74 -35 -115 -35c-57 0 -112 31 -112 94c0 72 55 121 102 149c35 21 74 35 115 35z" fill="currentColor"/>
<rect transform="translate(31.5985, 4.7229)" x="-0.0697" y="0.3189" width="0.1395" height="0.0000" ry="0.0000" fill="currentColor"/>
<text transform="translate(30.3527, 1.6692)" font-family="Century Schoolbook L" font-size="2.2000" text-anchor="start" fill="currentColor">
<tspan>
A</tspan>
</text>
<path transform="translate(30.3527, 5.2229) scale(0.0040, -0.0040)" d="M217 139c57 0 112 -31 112 -94c0 -72 -55 -121 -102 -149c-35 -21 -74 -35 -115 -35c-57 0 -112 31 -112 94c0 72 55 121 102 149c35 21 74 35 115 35z" fill="currentColor"/>
<rect transform="translate(28.5849, 4.7229)" x="-0.0697" y="0.8189" width="0.1395" height="0.0000" ry="0.0000" fill="currentColor"/>
<text transform="translate(27.3390, 1.6313)" font-family="Century Schoolbook L" font-size="2.2000" text-anchor="start" fill="currentColor">
<tspan>
G</tspan>
</text>
<path transform="translate(27.3390, 5.7229) scale(0.0040, -0.0040)" d="M217 139c57 0 112 -31 112 -94c0 -72 -55 -121 -102 -149c-35 -21 -74 -35 -115 -35c-57 0 -112 31 -112 94c0 72 55 121 102 149c35 21 74 35 115 35z" fill="currentColor"/>
<rect transform="translate(39.4634, 4.7229)" x="-0.0697" y="-0.8189" width="0.1395" height="0.0000" ry="0.0000" fill="currentColor"/>
<text transform="translate(39.3937, 9.3699)" font-family="Century Schoolbook L" font-size="2.2000" text-anchor="start" fill="currentColor">
<tspan>
D</tspan>
</text>
<path transform="translate(39.3937, 3.7229) scale(0.0040, -0.0040)" d="M217 139c57 0 112 -31 112 -94c0 -72 -55 -121 -102 -149c-35 -21 -74 -35 -115 -35c-57 0 -112 31 -112 94c0 72 55 121 102 149c35 21 74 35 115 35z" fill="currentColor"/>
<rect transform="translate(16.5301, 4.7229)" x="-0.0697" y="2.8189" width="0.1395" height="0.0000" ry="0.0000" fill="currentColor"/>
<path transform="translate(10.2843, 5.7229) scale(0.0040, -0.0040)" d="M378 263c4 0 7 1 11 1c156 0 257 -129 257 -262c0 -76 -34 -154 -108 -210c-22 -17 -46 -29 -72 -37c3 -34 4 -68 4 -102c0 -20 0 -40 -1 -60c-7 -121 -90 -228 -209 -228c-108 0 -196 87 -196 196c0 58 53 104 112 104c54 0 95 -48 95 -104c0 -52 -43 -95 -95 -95
c-10 0 -20 2 -29 6c26 -38 68 -63 116 -63c96 0 156 91 162 190c1 19 2 37 2 56c0 30 -2 60 -4 90c-29 -5 -58 -8 -88 -8c-188 0 -333 173 -333 375c0 177 130 307 246 442c-20 62 -38 125 -46 190c-6 52 -7 104 -7 157c0 115 55 223 148 290c3 2 7 3 11 3s8 -1 11 -4
c71 -83 134 -244 134 -357c0 -143 -85 -255 -178 -364c21 -68 40 -137 57 -206zM462 -202c67 24 111 94 111 162c0 89 -65 178 -170 190c24 -115 46 -230 59 -352zM75 26c0 -134 129 -245 263 -245c28 0 55 2 81 6c-14 126 -36 244 -61 363c-79 -8 -124 -61 -124 -119
c0 -43 25 -89 80 -121c5 -5 7 -11 7 -16c0 -12 -10 -23 -22 -23c-3 0 -6 1 -9 2c-81 43 -118 116 -118 186c0 89 58 175 161 198c-14 58 -29 116 -46 173c-106 -122 -212 -244 -212 -404zM406 1042c-99 -47 -162 -148 -162 -257c0 -73 20 -132 38 -191
c79 97 144 199 144 324c0 53 -4 76 -20 124z" fill="currentColor"/>
<text transform="translate(15.2843, 1.6313)" font-family="Century Schoolbook L" font-size="2.2000" text-anchor="start" fill="currentColor">
<tspan>
C</tspan>
</text>
<path transform="translate(15.2843, 7.7229) scale(0.0040, -0.0040)" d="M217 139c57 0 112 -31 112 -94c0 -72 -55 -121 -102 -149c-35 -21 -74 -35 -115 -35c-57 0 -112 31 -112 94c0 72 55 121 102 149c35 21 74 35 115 35z" fill="currentColor"/>
<rect transform="translate(48.5045, 4.7229)" x="-0.0697" y="-2.3189" width="0.1395" height="0.0000" ry="0.0000" fill="currentColor"/>
<text transform="translate(48.4347, 9.4078)" font-family="Century Schoolbook L" font-size="2.2000" text-anchor="start" fill="currentColor">
<tspan>
G</tspan>
</text>
<path transform="translate(48.4347, 2.2229) scale(0.0040, -0.0040)" d="M217 139c57 0 112 -31 112 -94c0 -72 -55 -121 -102 -149c-35 -21 -74 -35 -115 -35c-57 0 -112 31 -112 94c0 72 55 121 102 149c35 21 74 35 115 35z" fill="currentColor"/>
<rect transform="translate(45.4908, 4.7229)" x="-0.0697" y="-1.8189" width="0.1395" height="0.0000" ry="0.0000" fill="currentColor"/>
<text transform="translate(45.4211, 9.3699)" font-family="Century Schoolbook L" font-size="2.2000" text-anchor="start" fill="currentColor">
<tspan>
F</tspan>
</text>
<path transform="translate(45.4211, 2.7229) scale(0.0040, -0.0040)" d="M217 139c57 0 112 -31 112 -94c0 -72 -55 -121 -102 -149c-35 -21 -74 -35 -115 -35c-57 0 -112 31 -112 94c0 72 55 121 102 149c35 21 74 35 115 35z" fill="currentColor"/>
<rect transform="translate(42.4771, 4.7229)" x="-0.0697" y="-1.3189" width="0.1395" height="0.0000" ry="0.0000" fill="currentColor"/>
<text transform="translate(42.4074, 9.3699)" font-family="Century Schoolbook L" font-size="2.2000" text-anchor="start" fill="currentColor">
<tspan>
E</tspan>
</text>
<path transform="translate(42.4074, 3.2229) scale(0.0040, -0.0040)" d="M217 139c57 0 112 -31 112 -94c0 -72 -55 -121 -102 -149c-35 -21 -74 -35 -115 -35c-57 0 -112 31 -112 94c0 72 55 121 102 149c35 21 74 35 115 35z" fill="currentColor"/>
</svg>
